<svg height="448pt" viewBox="0 -32 448 448" width="448pt" xmlns="http://www.w3.org/2000/svg"><path d="m320 80h-208c-4.417969 0-8 3.582031-8 8v208 .199219c.054688.601562.171875 1.195312.359375 1.769531.0625.882812.433594 1.714844 1.039063 2.359375.3125.523437.675781 1.011719 1.089843 1.457031.046875.046875.0625.109375.121094.160156.394531.304688.816406.570313 1.261719.796876.359375.257812.734375.484374 1.128906.683593.953125.382813 1.972656.578125 3 .574219h208c.957031-.019531 1.902344-.207031 2.792969-.558594.273437-.105468.539062-.226562.800781-.363281.835938-.445313 1.601562-1.011719 2.277344-1.679687.589844-.621094 1.070312-1.339844 1.425781-2.117188 0-.074219.085937-.121094.117187-.191406.347657-.886719.53125-1.820313.554688-2.769532 0-.105468.054688-.191406.054688-.296874v-208.023438c0-2.125-.84375-4.164062-2.351563-5.664062-1.503906-1.503907-3.546875-2.34375-5.671875-2.335938zm-8 16v16h-32c-4.417969 0-8 3.582031-8 8s3.582031 8 8 8h32v16h-16c-4.417969 0-8 3.582031-8 8s3.582031 8 8 8h16v116.6875l-50.34375-50.34375c-2.996094-2.996094-7.808594-3.136719-10.976562-.320312l-26.046876 23.199218-34.6875-38.535156c-1.554687-1.617188-3.703124-2.53125-5.945312-2.53125s-4.390625.914062-5.945312 2.53125l-58.054688 64.464844v-67.152344h16c4.417969 0 8-3.582031 8-8s-3.582031-8-8-8h-16v-16h32c4.417969 0 8-3.582031 8-8s-3.582031-8-8-8h-32v-64zm-182.039062 192 54.039062-60.039062 28.671875 31.855468-31.710937 28.183594zm75.078124 0 24.3125-21.601562 26.3125-23.390626 45.023438 44.992188zm0 0"/><path d="m440 32h-24v-24c0-4.417969-3.582031-8-8-8h-368c-4.417969 0-8 3.582031-8 8v80h-24c-4.417969 0-8 3.582031-8 8s3.582031 8 8 8h24v32h-24c-4.417969 0-8 3.582031-8 8s3.582031 8 8 8h24v32h-24c-4.417969 0-8 3.582031-8 8s3.582031 8 8 8h24v32h-24c-4.417969 0-8 3.582031-8 8s3.582031 8 8 8h24v32h-24c-4.417969 0-8 3.582031-8 8s3.582031 8 8 8h24v80c0 4.417969 3.582031 8 8 8h368c4.417969 0 8-3.582031 8-8v-136h24c4.417969 0 8-3.582031 8-8v-192c0-4.417969-3.582031-8-8-8zm-8 96h-16v-32h16zm-16 16h16v32h-16zm16-96v32h-16v-32zm-32 320h-352v-72h24c4.417969 0 8-3.582031 8-8s-3.582031-8-8-8h-24v-32h24c4.417969 0 8-3.582031 8-8s-3.582031-8-8-8h-24v-32h24c4.417969 0 8-3.582031 8-8s-3.582031-8-8-8h-24v-32h24c4.417969 0 8-3.582031 8-8s-3.582031-8-8-8h-24v-32h24c4.417969 0 8-3.582031 8-8s-3.582031-8-8-8h-24v-72h352zm32-144h-16v-32h16zm0 0"/><path d="m224 208c15.464844 0 28-12.535156 28-28s-12.535156-28-28-28-28 12.535156-28 28 12.535156 28 28 28zm0-40c6.628906 0 12 5.371094 12 12s-5.371094 12-12 12-12-5.371094-12-12 5.371094-12 12-12zm0 0"/></svg>