<svg height="480pt" viewBox="0 0 480 480" width="480pt" xmlns="http://www.w3.org/2000/svg"><path d="m240 0c-132.546875 0-240 107.453125-240 240s107.453125 240 240 240 240-107.453125 240-240c-.148438-132.484375-107.515625-239.851562-240-240zm200.503906 140.289062-47.777344 83.519532-33.054687-57.257813-83.414063-147.574219c71.027344 11.777344 132.101563 56.886719 164.246094 121.3125zm-128.695312 224.070313h-143.617188l-71.792968-124.359375 65.035156-112.648438 6.765625-11.710937h143.609375l34.207031 59.261719 37.121094 65.671875-13.871094 24.226562zm-71.808594-348.359375c5.601562 0 11.105469.273438 16.585938.679688l46.894531 82.960937h-237.878907c42.445313-52.878906 106.589844-83.640625 174.398438-83.640625zm-186.199219 99.640625h95.917969l-118.519531 205.253906c-26.441407-68-18.003907-144.632812 22.601562-205.253906zm-14.601562 223.421875 47.769531-82.726562 119.054688 205.089843c-72.199219-11.222656-134.429688-56.867187-166.824219-122.363281zm200.800781 124.9375c-4.800781 0-9.542969-.199219-14.265625-.503906l-48.269531-83.136719h236.933594c-42.445313 52.878906-106.589844 83.640625-174.398438 83.640625zm186.199219-99.640625h-95.429688l52.335938-91.496094 16.664062-28.863281c.152344-.3125.285157-.636719.398438-.96875l48.390625-84.632812c26.738281 68.167968 18.371094 145.109374-22.398438 205.929687zm0 0"/><path d="m240 204c-19.882812 0-36 16.117188-36 36s16.117188 36 36 36 36-16.117188 36-36c-.023438-19.875-16.125-35.976562-36-36zm0 56c-11.046875 0-20-8.953125-20-20s8.953125-20 20-20 20 8.953125 20 20-8.953125 20-20 20zm0 0"/><path d="m322.207031 191.449219c-9.984375-8.921875-23.566406-12.65625-36.710937-10.097657-1.203125-14.519531-9.710938-27.429687-22.574219-34.261718l-2.066406-1.097656c-12.453125-6.613282-27.363281-6.667969-39.867188-.152344-12.503906 6.519531-20.996093 18.773437-22.707031 32.769531-14.183594-3.355469-29.097656.746094-39.570312 10.878906l-1.671876 1.601563c-10.136718 9.800781-14.796874 23.964844-12.464843 37.871094 2.335937 13.90625 11.363281 25.769531 24.144531 31.726562-7.5625 12.445312-8.273438 27.882812-1.886719 40.96875l1.03125 2.121094c5.582031 11.484375 16.011719 19.867187 28.425781 22.851562 12.417969 2.988282 25.515626.261719 35.710938-7.429687v25.480469h16v-21.785157c6.652344 4.03125 14.277344 6.167969 22.054688 6.175781 2.007812 0 4.007812-.140624 5.992187-.421874l2.335937-.328126c13.972657-1.964843 26.078126-10.6875 32.363282-23.320312s5.945312-27.550781-.914063-39.878906c13.429688-5.636719 23.074219-17.714844 25.601563-32.058594l.390625-2.285156c2.601562-14.585938-2.550781-29.476563-13.617188-39.328125zm-2.117187 36.605469-.402344 2.296874c-2.144531 12.007813-12.105469 21.0625-24.261719 22.054688-3.152343.265625-5.847656 2.363281-6.886719 5.347656-1.039062 2.984375-.21875 6.300782 2.085938 8.460938 7.597656 7.042968 10.464844 17.828125 7.367188 27.714844-3.097657 9.882812-11.605469 17.105468-21.863282 18.550781l-2.328125.328125c-12.085937 1.671875-23.78125-5.007813-28.480469-16.265625-1.222656-2.910157-4.042968-4.828125-7.199218-4.894531h-.160156c-3.109376 0-5.933594 1.800781-7.25 4.617187-4.355469 9.390625-13.726563 15.4375-24.078126 15.546875-10.351562.105469-19.84375-5.753906-24.394531-15.050781l-1.03125-2.121094c-5.324219-10.972656-2.585937-24.15625 6.664063-32.105469 2.394531-2.066406 3.34375-5.351562 2.425781-8.375-.917969-3.027344-3.535156-5.226562-6.671875-5.617187-10.285156-1.238281-18.941406-8.28125-22.238281-18.101563-3.296875-9.820312-.648438-20.664062 6.804687-27.855468l1.671875-1.601563c8.792969-8.460937 22.183594-9.929687 32.601563-3.578125 2.707031 1.644531 6.125 1.53125 8.722656-.277344 2.597656-1.8125 3.878906-4.980468 3.277344-8.089844-2-10.160156 2.027344-20.566406 10.34375-26.738281 8.320312-6.171875 19.445312-7.003906 28.589844-2.140625l2.066406 1.085938c10.761718 5.757812 16.292968 18.039062 13.480468 29.914062-.710937 3.078125.457032 6.28125 2.976563 8.183594s5.921875 2.144531 8.6875.617188c9.042969-5.046876 20.1875-4.4375 28.628906 1.566406 8.441407 6.007812 12.667969 16.335937 10.867188 26.535156zm0 0"/></svg>