<svg height="480pt" viewBox="0 -16 480 480" width="480pt" xmlns="http://www.w3.org/2000/svg"><path d="m432 176v-32c-.035156-30.914062-25.085938-55.964844-56-56h-24v-33.472656c9.554688-3.378906 15.957031-12.394532 16-22.527344v-8c0-13.253906-10.746094-24-24-24h-208c-13.253906 0-24 10.746094-24 24v8c.042969 10.132812 6.445312 19.148438 16 22.527344v33.472656h-24c-30.914062.035156-55.964844 25.085938-56 56v32c-26.5.027344-47.9726562 21.5-48 48v168c.0351562 30.914062 25.085938 55.964844 56 56h368c30.914062-.035156 55.964844-25.085938 56-56v-168c-.027344-26.5-21.5-47.972656-48-48zm32 48v48h-32v-80c17.671875 0 32 14.328125 32 32zm-48-80v128c-.027344 22.082031-17.917969 39.972656-40 40h-32v-32c4.417969 0 8-3.582031 8-8v-48c0-4.417969-3.582031-8-8-8v-112h32c22.082031.027344 39.972656 17.917969 40 40zm-40 288h-32v-104h32zm-128-104v104h-16v-104zm-24-16h-40v-32c4.417969 0 8-3.582031 8-8v-48c0-4.417969-3.582031-8-8-8v-112h112v112c-4.417969 0-8 3.582031-8 8v48c0 4.417969 3.582031 8 8 8v32zm-48-256h128v32h-128zm128 208v-32h32v32zm24-48h-16v-112h16zm-184 48v-32h32v32zm24-48h-16v-112h16zm0 64v32h-16v-32zm144 0h16v32h-16zm8-192v-32h16v32zm-192-64c0-4.417969 3.582031-8 8-8h208c4.417969 0 8 3.582031 8 8v8c0 4.417969-3.582031 8-8 8h-208c-4.417969 0-8-3.582031-8-8zm16 32h16v32h-16zm-80 88c.027344-22.082031 17.917969-39.972656 40-40h32v112c-4.417969 0-8 3.582031-8 8v48c0 4.417969 3.582031 8 8 8v32h-32c-22.082031-.027344-39.972656-17.917969-40-40zm-48 80c0-17.671875 14.328125-32 32-32v80h-32zm0 168v-104h34.398438c5.425781 18.0625 19.546874 32.199219 37.601562 37.640625v106.359375h-32c-22.082031-.027344-39.972656-17.917969-40-40zm88-64h32v104h-32zm48 104v-104h16v104zm32 0v-104h32v104zm80-104h32v104h-32zm48 104v-104h16v104zm152-40c-.027344 22.082031-17.917969 39.972656-40 40h-32v-106.398438c18.046875-5.4375 32.164062-19.554687 37.601562-37.601562h34.398438zm0 0"/><path d="m272 144h-64c-4.417969 0-8 3.582031-8 8v40c0 4.417969 3.582031 8 8 8h64c4.417969 0 8-3.582031 8-8v-40c0-4.417969-3.582031-8-8-8zm-8 40h-48v-24h48zm0 0"/><path d="m232 288h16v16h-16zm0 0"/><path d="m264 288h16v16h-16zm0 0"/><path d="m200 288h16v16h-16zm0 0"/></svg>