<svg height="480pt" viewBox="-24 0 480 480" width="480pt" xmlns="http://www.w3.org/2000/svg"><path d="m392 0h-144c-8.683594.03125-17.117188 2.914062-24 8.207031v-.207031h-144c-30.914062.035156-55.964844 25.085938-56 56v216c.035156 30.914062 25.085938 55.964844 56 56h99.390625c-2.226563 5.039062-3.378906 10.488281-3.390625 16v1.054688l-.960938.136718c-31.070312 4.453125-62.636718 4.09375-93.597656-1.0625l-71.707031-15.945312c-2.367187-.527344-4.847656.050781-6.742187 1.570312-1.894532 1.519532-2.99609425 3.816406-2.992188 6.246094v88c0 4.417969 3.582031 8 8 8 .582031 0 1.164062-.0625 1.734375-.183594l71.738281-15.945312c30.960938-5.15625 62.53125-5.515625 93.597656-1.0625l.960938.136718v9.054688c-13.253906 0-24 10.746094-24 24v16c0 4.417969 3.582031 8 8 8h143.96875c4.417969 0 8-3.582031 8-8v-16c0-13.253906-10.746094-24-24-24v-80c-.007812-5.507812-1.152344-10.957031-3.367188-16h83.367188c30.914062-.035156 55.964844-25.085938 56-56v-72.246094c5.167969-6.84375 7.972656-15.179687 8-23.753906v-144c-.027344-22.082031-17.917969-39.9726562-40-40zm-144 16h144c13.253906 0 24 10.746094 24 24v144c0 13.253906-10.746094 24-24 24h-144c-13.253906 0-24-10.746094-24-24v-144c0-13.253906 10.746094-24 24-24zm0 208h128v56c0 4.417969-3.582031 8-8 8h-288c-4.417969 0-8-3.582031-8-8v-216c0-4.417969 3.582031-8 8-8h128v128c.027344 22.082031 17.917969 39.972656 40 40zm-232 129.976562 56 12.421876v43.203124l-56 12.421876zm115.679688 49.742188c-14.609376 0-29.203126.996094-43.679688 2.976562v-37.390624c29.199219 4 58.808594 3.96875 88-.089844v37.601562c-14.683594-2.054687-29.492188-3.085937-44.320312-3.097656zm164.320312 52.28125v8h-128v-8c0-4.417969 3.582031-8 8-8h112c4.417969 0 8 3.582031 8 8zm-104-24v-80c.015625-5.921875 2.234375-11.628906 6.230469-16h9.769531v32h16v-32h16v32h16v-32h9.703125c4.011719 4.367188 6.257813 10.070312 6.296875 16v80zm176-112h-288c-22.082031-.027344-39.972656-17.917969-40-40v-216c.027344-22.082031 17.917969-39.972656 40-40h131.390625c-2.230469 5.039062-3.386719 10.488281-3.390625 16h-128c-13.253906 0-24 10.746094-24 24v216c0 13.253906 10.746094 24 24 24h288c13.253906 0 24-10.746094 24-24v-56c5.511719-.003906 10.960938-1.160156 16-3.390625v59.390625c-.027344 22.082031-17.917969 39.972656-40 40zm0 0"/><path d="m320 192c44.183594 0 80-35.816406 80-80s-35.816406-80-80-80-80 35.816406-80 80c.046875 44.164062 35.835938 79.953125 80 80zm0-144c35.347656 0 64 28.652344 64 64s-28.652344 64-64 64-64-28.652344-64-64c.039062-35.328125 28.671875-63.960938 64-64zm0 0"/><path d="m320 160c26.507812 0 48-21.492188 48-48s-21.492188-48-48-48-48 21.492188-48 48c.027344 26.5 21.5 47.972656 48 48zm0-80c17.671875 0 32 14.328125 32 32s-14.328125 32-32 32-32-14.328125-32-32 14.328125-32 32-32zm0 0"/><path d="m168 72h-56c-13.253906 0-24 10.746094-24 24v56c0 13.253906 10.746094 24 24 24h56c13.253906 0 24-10.746094 24-24v-56c0-13.253906-10.746094-24-24-24zm8 80c0 4.417969-3.582031 8-8 8h-56c-4.417969 0-8-3.582031-8-8v-56c0-4.417969 3.582031-8 8-8h56c4.417969 0 8 3.582031 8 8zm0 0"/><path d="m280 256h16v16h-16zm0 0"/><path d="m312 256h16v16h-16zm0 0"/><path d="m344 256h16v16h-16zm0 0"/></svg>