<svg height="480pt" viewBox="0 -80 480 480" width="480pt" xmlns="http://www.w3.org/2000/svg"><path d="m456 0h-264c-4.417969 0-8 3.582031-8 8v24h-16v-24c0-4.417969-3.582031-8-8-8h-48c-4.417969 0-8 3.582031-8 8v24h-16v-24c0-4.417969-3.582031-8-8-8h-56c-4.417969 0-8 3.582031-8 8v24h-8c-4.417969 0-8 3.582031-8 8v256c0 13.253906 10.746094 24 24 24h432c13.253906 0 24-10.746094 24-24v-272c0-13.253906-10.746094-24-24-24zm-406.863281 112c3.589843 14.113281 16.300781 23.992188 30.863281 23.992188s27.273438-9.878907 30.863281-23.992188h41.136719v40c-13.253906 0-24 10.746094-24 24s10.746094 24 24 24v48c-.007812 2.085938.796875 4.09375 2.238281 5.601562l17.808594 18.398438h-156.046875v-160zm14.863281-8c0-8.835938 7.164062-16 16-16s16 7.164062 16 16-7.164062 16-16 16-16-7.164062-16-16zm88 80c-4.417969 0-8-3.582031-8-8s3.582031-8 8-8zm16 60.800781v-137.601562l26.296875-27.199219h155.40625l26.296875 27.199219v137.601562l-26.296875 27.199219h-155.40625zm224-28.800781v-16c4.417969 0 8-3.582031 8-8s-3.582031-8-8-8v-16c13.253906 0 24 10.746094 24 24s-10.746094 24-24 24zm-2.238281 37.601562c1.441406-1.507812 2.246093-3.515624 2.238281-5.601562v-16c22.089844 0 40-17.910156 40-40s-17.910156-40-40-40v-40h72v160h-92.046875zm74.238281-229.601562v72h-32v-80h24c4.417969 0 8 3.582031 8 8zm-48-8v80h-28.601562l-15.445313-16h20.046875c4.417969 0 8-3.582031 8-8v-32c0-4.417969-3.582031-8-8-8h-32c-4.417969 0-8 3.582031-8 8v24h-16v-48zm-48 48v-16h16v16zm-248-48h32v16h-32zm-88 0h40v16h-40zm-16 32h176c4.417969 0 8-3.582031 8-8v-24h120v48h-129.105469c-2.160156-.011719-4.238281.855469-5.75 2.398438l-28.542969 29.601562h-45.738281c-3.589843-14.113281-16.300781-23.992188-30.863281-23.992188s-27.273438 9.878907-30.863281 23.992188h-33.136719zm448 248c0 4.417969-3.582031 8-8 8h-432c-4.417969 0-8-3.582031-8-8v-8h448zm0 0"/><path d="m272 88c-48.601562 0-88 39.398438-88 88s39.398438 88 88 88 88-39.398438 88-88c-.058594-48.578125-39.421875-87.941406-88-88zm0 160c-39.765625 0-72-32.234375-72-72s32.234375-72 72-72 72 32.234375 72 72c-.042969 39.746094-32.253906 71.957031-72 72zm0 0"/><path d="m272 120c-30.929688 0-56 25.070312-56 56s25.070312 56 56 56 56-25.070312 56-56c-.035156-30.914062-25.085938-55.964844-56-56zm0 96c-22.089844 0-40-17.910156-40-40s17.910156-40 40-40 40 17.910156 40 40c-.027344 22.082031-17.917969 39.972656-40 40zm0 0"/><path d="m128 64h16v16h-16zm0 0"/></svg>