<svg height="480pt" viewBox="-8 0 480 480" width="480pt" xmlns="http://www.w3.org/2000/svg"><path d="m392 56h-3.359375l-20.480469-35.839844c-7.136718-12.449218-20.378906-20.1367185-34.726562-20.160156h-90.867188c-14.347656.0234375-27.589844 7.710938-34.726562 20.160156l-20.480469 35.839844h-115.359375c-39.746094.042969-71.9570312 32.253906-72 72v280c.0429688 39.746094 32.253906 71.957031 72 72h336c30.914062-.035156 55.964844-25.085938 56-56v-296c-.042969-39.746094-32.253906-71.957031-72-72zm-104 80c53.019531 0 96 42.980469 96 96s-42.980469 96-96 96-96-42.980469-96-96c.058594-52.996094 43.003906-95.941406 96-96zm111.59375 88h.40625c8.835938 0 16 7.164062 16 16s-7.164062 16-16 16h-2.65625c1.746094-7.882812 2.636719-15.925781 2.65625-24 0-2.703125-.214844-5.34375-.40625-8zm-111.59375-104c-32.671875.019531-63.699219 14.34375-84.902344 39.199219l11.886719-87.199219h146.03125l11.886719 87.199219c-21.203125-24.855469-52.230469-39.179688-84.902344-39.199219zm-66.273438-91.902344c4.285157-7.46875 12.230469-12.082031 20.839844-12.097656h90.867188c8.59375.027344 16.523437 4.640625 20.796875 12.097656l15.984375 27.902344h-164.429688zm-149.726562 435.902344c-30.914062-.035156-55.964844-25.085938-56-56v-240h72c13.253906 0 24 10.746094 24 24v272zm104 0v-48h224v48zm0-64c0-13.253906 10.746094-24 24-24h176c13.253906 0 24 10.746094 24 24zm272 24c-.023438 19-13.386719 35.371094-32 39.199219v-63.199219c-.027344-22.082031-17.917969-39.972656-40-40h-176c-22.082031.027344-39.972656 17.917969-40 40v64h-32v-272c-.03125-8.785156-2.988281-17.3125-8.398438-24.230469 13.890626-1.101562 26.1875-9.40625 32.398438-21.882812l15.199219-30.3125c1.976562-3.953125.371093-8.757813-3.582031-10.734375-3.957032-1.976563-8.761719-.371094-10.738282 3.585937l-15.152344 30.308594c-4.050781 8.164063-12.390624 13.308594-21.503906 13.265625h-100.222656v-24c.035156-30.914062 25.085938-55.964844 56-56h126.839844l-16.878906 123.742188v.417968c-19.96875 57.863282 10.265624 121.027344 67.851562 141.773438s121.15625-8.632813 142.675781-65.933594h7.511719c17.671875 0 32-14.328125 32-32s-14.328125-32-32-32h-2.65625c-.960938-4.308594-2.179688-8.558594-3.65625-12.71875.078125-.464844.109375-.9375.097656-1.410156l-16.625-121.871094h14.839844c30.914062.035156 55.964844 25.085938 56 56zm0 0"/><path d="m328 272c4.417969 0 8-3.582031 8-8v-64c0-4.417969-3.582031-8-8-8h-80c-4.417969 0-8 3.582031-8 8v64c0 4.417969 3.582031 8 8 8zm-72-64h64v48h-64zm0 0"/><path d="m288 308c41.972656 0 76-34.027344 76-76s-34.027344-76-76-76-76 34.027344-76 76c.046875 41.953125 34.046875 75.953125 76 76zm0-136c33.136719 0 60 26.863281 60 60s-26.863281 60-60 60-60-26.863281-60-60c.035156-33.121094 26.878906-59.964844 60-60zm0 0"/><path d="m64 88c-13.253906 0-24 10.746094-24 24s10.746094 24 24 24 24-10.746094 24-24-10.746094-24-24-24zm0 32c-4.417969 0-8-3.582031-8-8s3.582031-8 8-8 8 3.582031 8 8-3.582031 8-8 8zm0 0"/><path d="m77.65625 391.03125c-9.394531-9.242188-24.484375-9.183594-33.800781.132812-9.320313 9.320313-9.386719 24.410157-.144531 33.804688l11.3125 11.3125c9.375 9.375 24.570312 9.375 33.945312 0 9.367188-9.375 9.367188-24.566406 0-33.9375zm0 33.929688c-3.160156 3.03125-8.152344 3.03125-11.3125 0l-11.3125-11.304688c-3.03125-3.140625-2.988281-8.128906.097656-11.214844 3.085938-3.085937 8.074219-3.128906 11.214844-.097656l11.3125 11.3125c3.117188 3.121094 3.117188 8.179688 0 11.304688zm0 0"/><path d="m144 328h16v16h-16zm0 0"/><path d="m176 328h16v16h-16zm0 0"/><path d="m32 184h16v16h-16zm0 0"/><path d="m32 216h16v16h-16zm0 0"/><path d="m32 248h16v16h-16zm0 0"/><path d="m32 280h16v16h-16zm0 0"/><path d="m32 312h16v16h-16zm0 0"/><path d="m32 344h16v16h-16zm0 0"/><path d="m64 184h16v16h-16zm0 0"/><path d="m64 216h16v16h-16zm0 0"/><path d="m64 248h16v16h-16zm0 0"/><path d="m64 280h16v16h-16zm0 0"/><path d="m64 312h16v16h-16zm0 0"/><path d="m64 344h16v16h-16zm0 0"/></svg>