<svg height="480pt" viewBox="0 -72 480 480" width="480pt" xmlns="http://www.w3.org/2000/svg"><path d="m472 80h-8v-24c0-4.417969-3.582031-8-8-8h-8v-24c0-4.417969-3.582031-8-8-8h-56c-4.417969 0-8 3.582031-8 8v24h-8c-4.417969 0-8 3.582031-8 8v24h-16v-24c0-2.335938-1.019531-4.550781-2.792969-6.070312l-56-48c-1.449219-1.246094-3.296875-1.929688-5.207031-1.929688h-80c-1.910156 0-3.757812.683594-5.207031 1.929688l-53.746094 46.070312h-37.046875v-8c0-4.417969-3.582031-8-8-8h-32c-4.417969 0-8 3.582031-8 8v8h-40c-4.417969 0-8 3.582031-8 8v24c-4.417969 0-8 3.582031-8 8v240c0 4.417969 3.582031 8 8 8h464c4.417969 0 8-3.582031 8-8v-240c0-4.417969-3.582031-8-8-8zm-456 208v-144h120v22.671875c-3.234375 8.148437-5.492188 16.648437-6.71875 25.328125h-9.28125c-13.253906 0-24 10.746094-24 24s10.746094 24 24 24h12.71875c.945312 3.199219 2.066406 6.28125 3.28125 9.328125v38.671875zm48-192h72v32h-120v-32zm304 0h96v32h-120v-32zm-40 32h-9.769531c-43.425781-42.664062-113.035157-42.664062-156.460938 0h-9.769531v-32h176zm-200 80v16h-8c-4.417969 0-8-3.582031-8-8s3.582031-8 8-8zm24 69.054688c3.015625 3.855468 6.277344 7.511718 9.769531 10.945312h-9.769531zm-8-69.054688c0-53.019531 42.980469-96 96-96s96 42.980469 96 96-42.980469 96-96 96c-52.996094-.058594-95.941406-43.003906-96-96zm184 69.054688v10.945312h-9.769531c3.492187-3.433594 6.753906-7.089844 9.769531-10.945312zm15.457031-26.246094c11.199219-26.890625 11.394531-57.105469.542969-84.136719v-22.671875h120v144h-120v-34.496094c-.023438-.921875-.207031-1.835937-.542969-2.695312zm48.542969-218.808594h40v16h-40zm-16 32h72v16h-72zm-173.039062-48h74.078124l50.960938 43.679688v20.320312h-176v-20.320312zm-66.960938 48v16h-32v-16zm-64-16h16v32h-16zm-48 16h32v16h-32zm440 256h-448v-16h166.609375c35.285156 21.332031 79.496094 21.332031 114.78125 0h166.609375zm0 0"/><path d="m320 208c0-44.183594-35.816406-80-80-80s-80 35.816406-80 80 35.816406 80 80 80c44.164062-.046875 79.953125-35.835938 80-80zm-144 0c0-35.347656 28.652344-64 64-64s64 28.652344 64 64-28.652344 64-64 64c-35.328125-.039062-63.960938-28.671875-64-64zm0 0"/><path d="m408 208c4.730469 0 9.359375-1.40625 13.289062-4.039062l13.910157 10.4375c3.535156 2.652343 8.550781 1.9375 11.199219-1.597657 2.652343-3.535156 1.9375-8.550781-1.597657-11.199219l-13.992187-10.496093c.753906-2.296875 1.15625-4.691407 1.191406-7.105469 0-13.253906-10.746094-24-24-24s-24 10.746094-24 24 10.746094 24 24 24zm0-32c4.417969 0 8 3.582031 8 8s-3.582031 8-8 8-8-3.582031-8-8 3.582031-8 8-8zm0 0"/><path d="m32 256h16v16h-16zm0 0"/><path d="m32 224h16v16h-16zm0 0"/><path d="m32 192h16v16h-16zm0 0"/><path d="m32 160h16v16h-16zm0 0"/><path d="m64 256h16v16h-16zm0 0"/><path d="m64 224h16v16h-16zm0 0"/><path d="m96 256h16v16h-16zm0 0"/><path d="m64 192h16v16h-16zm0 0"/><path d="m64 160h16v16h-16zm0 0"/><path d="m96 160h16v16h-16zm0 0"/><path d="m384 256h16v16h-16zm0 0"/><path d="m384 224h16v16h-16zm0 0"/><path d="m416 256h16v16h-16zm0 0"/><path d="m416 224h16v16h-16zm0 0"/></svg>