<svg height="480pt" viewBox="0 -4 480 480" width="480pt" xmlns="http://www.w3.org/2000/svg"><path d="m456 80h-56v-72c0-4.417969-3.582031-8-8-8h-304c-4.417969 0-8 3.582031-8 8v72h-56c-13.253906 0-24 10.746094-24 24v344c0 13.253906 10.746094 24 24 24h432c13.253906 0 24-10.746094 24-24v-344c0-13.253906-10.746094-24-24-24zm-388 232c0-77.320312 62.679688-140 140-140s140 62.679688 140 140-62.679688 140-140 140c-77.28125-.09375-139.90625-62.71875-140-140zm31.664062 112h-83.664062v-226.664062h86.59375c-31.714844 28.957031-50.023438 69.753906-50.578125 112.699218-.554687 42.941406 16.691406 84.195313 47.648437 113.964844zm212.046876-242.0625c-.191407.085938-.378907.1875-.558594.292969-2.210938 1.148437-4.660156 1.753906-7.152344 1.769531-8.171875.105469-15.144531-5.894531-16.261719-13.992188-1.117187-8.097656 3.96875-15.757812 11.867188-17.871093 7.894531-2.113281 16.128906 1.984375 19.207031 9.554687 3.074219 7.574219.03125 16.25-7.101562 20.246094zm48.960937 162.0625h7.328125c17.671875 0 32-14.328125 32-32s-14.328125-32-32-32h-7.328125c-6.667969-31.414062-22.871094-60-46.398437-81.855469.796874-.273437 1.597656-.472656 2.398437-.800781h35.328125v2.65625c0 13.253906 10.746094 24 24 24h48c13.253906 0 24-10.746094 24-24v-2.664062h16v226.664062h-147.664062c22.449218-21.628906 37.894531-49.496094 44.335937-80zm2.511719-48h4.816406c8.835938 0 16 7.164062 16 16s-7.164062 16-16 16h-4.800781c1.089843-10.640625 1.089843-21.359375 0-32zm52.816406-144h-24v-24h24zm-32 16h40c4.417969 0 8 3.582031 8 8v24c0 4.417969-3.582031 8-8 8h-48c-4.417969 0-8-3.582031-8-8v-24c0-4.417969 3.582031-8 8-8zm-288-152h288v64h-16v-40c0-4.417969-3.582031-8-8-8h-240c-4.417969 0-8 3.582031-8 8v40h-16zm256 64h-224v-32h224zm-336 24c0-4.417969 3.582031-8 8-8h432c4.417969 0 8 3.582031 8 8v77.335938h-16v-5.335938c-.042969-10.132812-6.445312-19.148438-16-22.527344v-33.472656c0-4.417969-3.582031-8-8-8h-40c-4.417969 0-8 3.582031-8 8v32c-13.253906 0-24 10.746094-24 24v5.335938h-19c1.957031-4.175782 2.980469-8.726563 3-13.335938 0-17.671875-14.328125-32-32-32s-32 14.328125-32 32c0 .679688.160156 1.3125.199219 1.984375-48.367188-22.085937-104.683594-17.800781-149.152344 11.351563h-107.046875zm0 344v-8h103.070312c9.082032 6.347656 18.808594 11.710938 29.027344 16h-124.097656c-4.417969 0-8-3.582031-8-8zm448 0c0 4.417969-3.582031 8-8 8h-188.097656c10.21875-4.289062 19.945312-9.652344 29.027344-16h167.070312zm0 0"/><path d="m256 312c0-26.507812-21.492188-48-48-48s-48 21.492188-48 48 21.492188 48 48 48c26.5-.027344 47.972656-21.5 48-48zm-80 0c0-17.671875 14.328125-32 32-32s32 14.328125 32 32-14.328125 32-32 32-32-14.328125-32-32zm0 0"/><path d="m328 312c0-66.273438-53.726562-120-120-120s-120 53.726562-120 120 53.726562 120 120 120c66.242188-.074219 119.925781-53.757812 120-120zm-224 0c0-57.4375 46.5625-104 104-104s104 46.5625 104 104-46.5625 104-104 104c-57.410156-.066406-103.933594-46.589844-104-104zm0 0"/><path d="m400 392h16v16h-16zm0 0"/><path d="m432 392h16v16h-16zm0 0"/><path d="m32 112h16v16h-16zm0 0"/><path d="m64 112h16v16h-16zm0 0"/></svg>