<svg height="480pt" viewBox="-68 0 480 480" width="480pt" xmlns="http://www.w3.org/2000/svg"><path d="m176 32c-26.507812 0-48 21.492188-48 48s21.492188 48 48 48 48-21.492188 48-48c-.027344-26.5-21.5-47.972656-48-48zm0 80c-17.671875 0-32-14.328125-32-32s14.328125-32 32-32 32 14.328125 32 32-14.328125 32-32 32zm0 0"/><path d="m248 176h-144c-4.417969 0-8 3.582031-8 8v80c0 4.417969 3.582031 8 8 8h144c4.417969 0 8-3.582031 8-8v-80c0-4.417969-3.582031-8-8-8zm-8 16v32h-24v-8h-16v8h-16v-16h-16v16h-16v-8h-16v8h-24v-32zm-128 64v-16h128v16zm0 0"/><path d="m312 160h-24v-8c0-4.417969-3.582031-8-8-8h-16v-56c0-48.601562-39.398438-88-88-88s-88 39.398438-88 88v56h-16c-4.417969 0-8 3.582031-8 8v8h-56c-4.417969 0-8 3.582031-8 8v112c0 4.417969 3.582031 8 8 8h56v144c.027344 26.5 21.5 47.972656 48 48h128c26.5-.027344 47.972656-21.5 48-48v-72.207031c10.066406-7.46875 16-19.261719 16-31.792969s-5.933594-24.324219-16-31.792969v-24.207031h24c4.417969 0 8-3.582031 8-8v-96c0-4.417969-3.582031-8-8-8zm-24 48h16v16h-16zm16-32v16h-16v-16zm-200-88c0-39.765625 32.234375-72 72-72s72 32.234375 72 72v56h-144zm-88 184v-96h16v40h16v-40h16v96zm248 80c-13.253906 0-24-10.746094-24-24s10.746094-24 24-24 24 10.746094 24 24-10.746094 24-24 24zm0-64c-15.246094.015625-29.15625 8.695312-35.871094 22.378906-6.714844 13.6875-5.066406 30 4.25 42.066406 9.316406 12.066407 24.679688 17.789063 39.621094 14.753907v64.800781c0 17.671875-14.328125 32-32 32h-128c-17.671875 0-32-14.328125-32-32v-272h192v128.800781c-2.632812-.535156-5.3125-.804687-8-.800781zm24-32v-16h16v16zm0 0"/><path d="m200 320h-80c-4.417969 0-8 3.582031-8 8s3.582031 8 8 8h80c4.417969 0 8-3.582031 8-8s-3.582031-8-8-8zm0 0"/><path d="m200 352h-80c-4.417969 0-8 3.582031-8 8s3.582031 8 8 8h80c4.417969 0 8-3.582031 8-8s-3.582031-8-8-8zm0 0"/><path d="m176 384c-13.253906 0-24 10.746094-24 24s10.746094 24 24 24 24-10.746094 24-24-10.746094-24-24-24zm0 32c-4.417969 0-8-3.582031-8-8s3.582031-8 8-8 8 3.582031 8 8-3.582031 8-8 8zm0 0"/><path d="m120 288h16v16h-16zm0 0"/><path d="m152 288h16v16h-16zm0 0"/><path d="m184 288h16v16h-16zm0 0"/><path d="m112 416h-16c0 17.671875 14.328125 32 32 32v-16c-8.835938 0-16-7.164062-16-16zm0 0"/><path d="m32 232h16v16h-16zm0 0"/><path d="m304 16h16v16h-16zm0 0"/><path d="m304 64h16v16h-16zm0 0"/><path d="m280 40h16v16h-16zm0 0"/><path d="m328 40h16v16h-16zm0 0"/><path d="m40 80h16v16h-16zm0 0"/><path d="m40 112h16v16h-16zm0 0"/><path d="m24 96h16v16h-16zm0 0"/><path d="m56 96h16v16h-16zm0 0"/></svg>