<svg height="480pt" viewBox="0 -40 480 480" width="480pt" xmlns="http://www.w3.org/2000/svg"><path d="m304 336c61.855469 0 112-50.144531 112-112s-50.144531-112-112-112-112 50.144531-112 112c.066406 61.828125 50.171875 111.933594 112 112zm72-168v112h-144v-112zm-160 94.246094c-10.667969-24.382813-10.667969-52.109375 0-76.492188zm24.710938 33.753906h126.578124c-36.125 32-90.453124 32-126.578124 0zm151.289062-33.753906v-76.492188c10.667969 24.382813 10.667969 52.109375 0 76.492188zm-24.710938-110.246094h-126.578124c36.125-32 90.453124-32 126.578124 0zm0 0"/><path d="m440 80h-272c-4.417969 0-8 3.582031-8 8v272c0 4.417969 3.582031 8 8 8h272c4.417969 0 8-3.582031 8-8v-272c0-4.417969-3.582031-8-8-8zm-264 16h62.328125c-26.75 13.792969-48.535156 35.578125-62.328125 62.328125zm128 0c70.691406 0 128 57.308594 128 128s-57.308594 128-128 128-128-57.308594-128-128c.082031-70.65625 57.34375-127.917969 128-128zm-128 256v-62.328125c13.792969 26.75 35.578125 48.535156 62.328125 62.328125zm256 0h-62.328125c26.75-13.792969 48.535156-35.578125 62.328125-62.328125zm-62.328125-256h62.328125v62.328125c-13.792969-26.75-35.578125-48.535156-62.328125-62.328125zm0 0"/><path d="m89.777344 80h-35.554688c-12.746094.527344-22.671875 11.25-22.222656 24-.449219 12.75 9.476562 23.472656 22.222656 24h35.554688c12.746094-.527344 22.671875-11.25 22.222656-24 .449219-12.75-9.476562-23.472656-22.222656-24zm0 32h-35.554688c-3.65625-.933594-6.214844-4.226562-6.214844-8s2.558594-7.066406 6.214844-8h35.554688c3.65625.933594 6.214844 4.226562 6.214844 8s-2.558594 7.066406-6.214844 8zm0 0"/><path d="m472 48h-19.71875l-29.601562-44.441406c-1.488282-2.230469-3.996094-3.5664065-6.679688-3.558594h-216c-2.675781 0-5.171875 1.335938-6.65625 3.558594l-29.625 44.441406h-51.71875v-8c0-13.253906-10.746094-24-24-24h-32c-13.253906 0-24 10.746094-24 24v8h-24c-4.417969 0-8 3.582031-8 8v336c0 4.417969 3.582031 8 8 8h464c4.417969 0 8-3.582031 8-8v-336c0-4.417969-3.582031-8-8-8zm-424-8c0-4.417969 3.582031-8 8-8h32c4.417969 0 8 3.582031 8 8v8h-48zm72 120v192h-16v-192zm-32 192h-72v-192h72zm376 32h-448v-16h112c4.417969 0 8-3.582031 8-8v-208c0-4.417969-3.582031-8-8-8h-112v-80h152c2.675781 0 5.171875-1.335938 6.65625-3.558594l29.625-44.441406h207.4375l29.601562 44.441406c1.488282 2.230469 3.996094 3.566406 6.679688 3.558594h16zm0 0"/><path d="m248 48h16v16h-16zm0 0"/><path d="m344 48h16v16h-16zm0 0"/><path d="m280 48h48v16h-48zm0 0"/><path d="m344 216h16v-24c0-4.417969-3.582031-8-8-8h-24v16h16zm0 0"/><path d="m256 264h24v-16h-16v-16h-16v24c0 4.417969 3.582031 8 8 8zm0 0"/></svg>