<svg height="480pt" viewBox="-55 0 479 480" width="480pt" xmlns="http://www.w3.org/2000/svg"><path d="m.5 93.046875v362.953125c0 13.253906 10.746094 24 24 24h328c8.835938 0 16-7.164062 16-16v-160c0-4.417969-3.582031-8-8-8h-8v-48h8c4.417969 0 8-3.582031 8-8v-216c0-13.253906-10.746094-24-24-24h-271.671875c-7.832031.00390625-15.167969 3.824219-19.65625 10.238281l-48.335937 69.035157c-2.828126 4.035156-4.34375 8.847656-4.335938 13.773437zm352 138.953125h-16v-48h16zm-336-138.953125c-.003906-1.644531.5-3.246094 1.449219-4.589844l48.335937-69.042969c1.492188-2.136718 3.933594-3.410156 6.542969-3.414062h271.671875c4.417969 0 8 3.582031 8 8v144h-24c-4.417969 0-8 3.582031-8 8v64c0 4.417969 3.582031 8 8 8h8v56c0 4.417969 3.582031 8 8 8h8v152h-328c-4.417969 0-8-3.582031-8-8zm0 0"/><path d="m168.5 134.976562h32c4.417969 0 8-3.582031 8-8v-71.390624c0-4.421876-3.582031-8-8-8h-32c-4.417969 0-8 3.578124-8 8v71.390624c0 4.417969 3.582031 8 8 8zm8-71.390624h16v55.390624h-16zm0 0"/><path d="m232.5 134.976562h32c4.417969 0 8-3.582031 8-8v-71.390624c0-4.421876-3.582031-8-8-8h-32c-4.417969 0-8 3.578124-8 8v71.390624c0 4.417969 3.582031 8 8 8zm8-71.390624h16v55.390624h-16zm0 0"/><path d="m296.5 134.976562h32c4.417969 0 8-3.582031 8-8v-71.390624c0-4.421876-3.582031-8-8-8h-32c-4.417969 0-8 3.578124-8 8v71.390624c0 4.417969 3.582031 8 8 8zm8-71.390624h16v55.390624h-16zm0 0"/><path d="m104.5 134.976562h32c4.417969 0 8-3.582031 8-8v-71.390624c0-4.421876-3.582031-8-8-8h-32c-4.417969 0-8 3.578124-8 8v71.390624c0 4.417969 3.582031 8 8 8zm8-71.390624h16v55.390624h-16zm0 0"/><path d="m40.5 176h32c4.417969 0 8-3.582031 8-8v-71.382812c0-4.417969-3.582031-8-8-8h-32c-4.417969 0-8 3.582031-8 8v71.382812c0 4.417969 3.582031 8 8 8zm8-71.382812h16v55.382812h-16zm0 0"/><path d="m40.5 448h296v-16h-288v-232h-16v240c0 4.417969 3.582031 8 8 8zm0 0"/><path d="m224.5 384h16v16h-16zm0 0"/><path d="m256.5 384h16v16h-16zm0 0"/><path d="m288.5 384h16v16h-16zm0 0"/></svg>