<svg height="472pt" viewBox="-68 0 472 472" width="472pt" xmlns="http://www.w3.org/2000/svg"><path d="m128 112c-26.507812 0-48 21.492188-48 48s21.492188 48 48 48 48-21.492188 48-48c-.027344-26.5-21.5-47.972656-48-48zm0 80c-17.671875 0-32-14.328125-32-32s14.328125-32 32-32 32 14.328125 32 32-14.328125 32-32 32zm0 0"/><path d="m128 140c-4.417969 0-8 3.582031-8 8s3.582031 8 8 8c2.210938 0 4 1.789062 4 4 0 4.417969 3.582031 8 8 8s8-3.582031 8-8c0-11.046875-8.953125-20-20-20zm0 0"/><path d="m128 376c35.347656 0 64-28.652344 64-64s-28.652344-64-64-64-64 28.652344-64 64c.039062 35.328125 28.671875 63.960938 64 64zm0-112c26.507812 0 48 21.492188 48 48s-21.492188 48-48 48-48-21.492188-48-48c.027344-26.5 21.5-47.972656 48-48zm0 0"/><path d="m128 296c8.835938 0 16 7.164062 16 16 0 4.417969 3.582031 8 8 8s8-3.582031 8-8c0-17.671875-14.328125-32-32-32-4.417969 0-8 3.582031-8 8s3.582031 8 8 8zm0 0"/><path d="m6.398438 428.488281 5.058593 1.023438c1.503907.304687 3.015625.503906 4.527344.800781v33.6875c0 4.417969 3.582031 8 8 8h208.015625c4.417969 0 8-3.582031 8-8v-33.6875c1.511719-.296875 3.023438-.496094 4.527344-.800781l5.058594-1.023438c3.722656-.761719 6.398437-4.039062 6.398437-7.839843v-116.648438h40c4.417969 0 8-3.582031 8-8v-24h24c4.417969 0 8-3.582031 8-8v-64c0-4.417969-3.582031-8-8-8h-23.984375v-24c0-4.417969-3.582031-8-8-8h-40v-38.449219c-.003906-3.613281-2.429688-6.777343-5.921875-7.71875l-2.316406-.625c.109375-.394531.191406-.796875.238281-1.207031v-24c0-4.417969-3.582031-8-8-8v-56c0-13.253906-10.746094-24-24-24h-176c-13.253906 0-24 10.746094-24 24v56c-4.417969 0-8 3.582031-8 8v24c.046875.410156.128906.8125.238281 1.207031l-2.316406.625c-3.492187.941407-5.91796875 4.105469-5.921875 7.71875v299.097657c0 3.800781 2.675781 7.078124 6.398438 7.839843zm217.601562 27.511719h-192v-22.863281c31.722656 5.328125 63.832031 8.035156 96 8.09375 32.167969-.058594 64.277344-2.765625 96-8.09375zm16-41.894531c-73.929688 14.832031-150.070312 14.832031-224 0v-286.425781l45.601562-12.296876c-17.15625 25.511719-18.199218 58.585938-2.691406 85.128907-13.304687 2.078125-23.871094 12.304687-26.382812 25.535156-2.515625 13.234375 3.566406 26.617187 15.183594 33.433594-26.316407 40.109375-18.988282 93.488281 17.167968 125.019531 36.15625 31.527344 90.039063 31.527344 126.191406 0 36.15625-31.53125 43.488282-84.910156 17.167969-125.019531 11.660157-6.835938 17.734375-20.28125 15.164063-33.546875-2.574219-13.265625-13.234375-23.464844-26.601563-25.445313 15.773438-26.433593 14.835938-59.601562-2.402343-85.105469l45.601562 12.296876zm-48-334.105469h-128v-32h128zm-144 152c.089844-8.214844 6.390625-15.027344 14.570312-15.757812 8.183594-.734376 15.59375 4.847656 17.140626 12.917968-8.089844 4.742188-15.449219 10.636719-21.847657 17.496094-5.941406-2.449219-9.828125-8.230469-9.863281-14.65625zm80 0c44.183594 0 80 35.816406 80 80s-35.816406 80-80 80-80-35.816406-80-80c.046875-44.164062 35.835938-79.953125 80-80zm70.136719 14.65625c-6.398438-6.859375-13.757813-12.753906-21.847657-17.496094 1.292969-7.585937 7.804688-13.171875 15.496094-13.304687 7.695313-.128907 14.390625 5.234375 15.945313 12.769531 1.554687 7.535156-2.476563 15.109375-9.59375 18.03125zm-45.058594-27.753906c-.222656.097656-.359375.28125-.566406.386718-15.953125-4.359374-32.777344-4.386718-48.742188-.074218-28.191406-11.570313-44.304687-41.421875-38.5-71.339844 5.800781-29.914062 31.90625-51.578125 62.375-51.773438 30.472657-.191406 56.847657 21.140626 63.027344 50.980469 6.183594 29.839844-9.550781 59.894531-37.59375 71.820313zm102.921875 37.097656v-16h32v16zm32-32h-32v-16h32zm-32 64v-16h32v16zm64-32h-16v-48h16zm-32-80v16h-32v-16zm-104.105469-80h48.105469v12.960938zm-151.894531-72c0-4.417969 3.582031-8 8-8h176c4.417969 0 8 3.582031 8 8v56h-16v-40c0-4.417969-3.582031-8-8-8h-144c-4.417969 0-8 3.582031-8 8v40h-16zm-8 72h48.105469l-48.105469 12.960938zm0 0"/></svg>