<svg height="480pt" viewBox="0 0 480.00111 480" width="480pt" xmlns="http://www.w3.org/2000/svg"><path d="m216 392c0 17.671875 14.328125 32 32 32 17.675781 0 32-14.328125 32-32v-246.113281l27.578125-55.148438c3.71875-7.441406 3.324219-16.277343-1.050781-23.355469-4.371094-7.074218-12.097656-11.382812-20.414063-11.382812h-76.222656c-8.320313 0-16.042969 4.308594-20.417969 11.382812-4.371094 7.078126-4.769531 15.914063-1.046875 23.355469l27.574219 55.148438zm48-176h-8c-4.417969 0-8 3.582031-8 8s3.582031 8 8 8h8v16h-32v-96h32zm-16 192c-8.835938 0-16-7.164062-16-16v-128h32v128c0 8.835938-7.164062 16-16 16zm-44.910156-332.199219c1.433594-2.378906 4.019531-3.824219 6.800781-3.800781h9.832031l13.597656 20.441406c2.453126 3.675782 7.421876 4.667969 11.097657 2.214844s4.667969-7.417969 2.214843-11.09375l-7.6875-11.5625h12.800782l13.597656 20.441406c2.453125 3.675782 7.421875 4.667969 11.097656 2.214844 3.675782-2.453125 4.667969-7.417969 2.214844-11.09375l-7.710938-11.5625h15.199219c2.773438.003906 5.34375 1.4375 6.800781 3.796875 1.457032 2.355469 1.589844 5.300781.351563 7.78125l-26.238281 52.421875h-38.113282l-26.207031-52.421875c-1.269531-2.472656-1.136719-5.429687.351563-7.777344zm0 0"/><path d="m56 433.144531v38.855469c0 4.417969 3.582031 8 8 8h64c4.417969 0 8-3.582031 8-8v-38.832031c35.480469-29.503907 56-73.261719 56-119.40625v-1.761719c.160156-46.230469-20.429688-90.089844-56.09375-119.503906 0-.175782.09375-.320313.09375-.496094v-40c0-4.417969-3.582031-8-8-8h-8v-16h8c4.417969 0 8-3.582031 8-8s-3.582031-8-8-8h-8v-88c0-13.253906-10.742188-24-24-24-13.253906 0-24 10.746094-24 24v88h-8c-4.417969 0-8 3.582031-8 8s3.582031 8 8 8h8v16h-8c-4.417969 0-8 3.582031-8 8v40c0 .175781.089844.328125.105469.503906-35.683594 29.398438-56.28125 73.265625-56.105469 119.496094v1.761719c-.0195312 46.144531 20.503906 89.898437 56 119.382812zm26.839844-233.144531h26.320312l14.714844 66.015625c7.785156 35.148437 7.328125 71.621094-1.335938 106.5625l-12.808593 51.421875h-27.457031l-12.800782-51.421875c-8.667968-34.941406-9.125-71.414063-1.335937-106.5625zm37.160156 264h-48v-24h48zm56-152v1.761719c.007812 40.683593-17.773438 79.339843-48.671875 105.808593l10.746094-43.113281c9.257812-37.359375 9.742187-76.351562 1.414062-113.929687l-12.65625-56.75c31.3125 26.378906 49.320313 65.28125 49.167969 106.222656zm-88-288c0-4.417969 3.582031-8 8-8s8 3.582031 8 8v88h-16zm0 104h16v16h-16zm-16 32h48v24h-48zm-56 152c-.167969-40.945312 17.839844-79.855469 49.167969-106.222656l-12.65625 56.75c-8.324219 37.578125-7.839844 76.570312 1.417969 113.929687l10.742187 43.121094c-30.917969-26.457031-48.703125-65.125-48.671875-105.816406zm0 0"/><path d="m408 216h-8v-16h-16v16h-8c-4.417969 0-8 3.582031-8 8v48c0 4.417969 3.582031 8 8 8h8v32h16v-32h8c4.417969 0 8-3.582031 8-8v-48c0-4.417969-3.582031-8-8-8zm-8 48h-16v-32h16zm0 0"/><path d="m456 168h-8v-24c-.039062-10.132812-6.445312-19.148438-16-22.527344v-24.070312l31.511719-86.664063c.894531-2.453125.535156-5.1875-.960938-7.324219-1.496093-2.136718-3.941406-3.41015575-6.550781-3.414062h-128c-2.609375.00390625-5.050781 1.277344-6.546875 3.414062-1.496094 2.136719-1.855469 4.871094-.964844 7.324219l31.511719 86.664063v24.070312c-9.554688 3.378906-15.957031 12.394532-16 22.527344v248c0 13.253906 10.746094 24 24 24v24c.023438 3.558594 2.425781 6.660156 5.863281 7.570312l-5.597656 22.496094c-.59375 2.382813-.0625 4.910156 1.449219 6.847656 1.511718 1.941407 3.828125 3.078126 6.285156 3.085938h48c2.464844 0 4.789062-1.132812 6.304688-3.074219 1.515624-1.941406 2.050781-4.472656 1.457031-6.859375l-5.601563-22.496094c3.429688-.921874 5.820313-4.019531 5.839844-7.570312v-24c13.257812 0 24-10.746094 24-24v-208h8c4.417969 0 8 3.582031 8 8v48c0 4.417969 3.582031 8 8 8s8-3.582031 8-8v-48c0-13.253906-10.742188-24-24-24zm-88-64h48v16h-48zm-4.277344-88 13.597656 20.441406c2.453126 3.675782 7.421876 4.667969 11.097657 2.214844s4.667969-7.417969 2.214843-11.09375l-7.6875-11.5625h12.800782l13.597656 20.441406c2.453125 3.675782 7.421875 4.667969 11.097656 2.214844 3.675782-2.453125 4.667969-7.417969 2.214844-11.09375l-7.710938-11.5625h29.601563l-26.144531 72h-52.800782l-26.175781-72zm-11.722656 128c0-4.417969 3.582031-8 8-8h64c4.417969 0 8 3.582031 8 8v8h-80zm26.25 320 4-16h19.503906l4 16zm29.75-32h-32v-16h32zm24-40c0 4.417969-3.582031 8-8 8h-64c-4.417969 0-8-3.582031-8-8v-224h80zm0 0"/></svg>