<svg height="483pt" viewBox="0 -1 483.85619 483" width="483pt" xmlns="http://www.w3.org/2000/svg"><path d="m419.851562 248.921875c-16.722656 0-32.773437 6.566406-44.703124 18.289063l-52-24.273438 6.519531-23.910156c.304687-1.117188.363281-2.285156.167969-3.425782l-7.847657-47.34375v-24.625l52.546875-31.863281c22.226563 20.53125 55.804688 22.660157 80.445313 5.097657 24.640625-17.558594 33.589843-49.996094 21.4375-77.703126-12.152344-27.710937-42.074219-43.101562-71.683594-36.871093s-50.789063 32.371093-50.746094 62.628906v.632813l-32.976562 11.78125c-.113281-.292969-.246094-.578126-.398438-.855469l-32-48c-.242187-.335938-.507812-.648438-.800781-.941407-.101562-.121093-.191406-.25-.304688-.363281-.644531-.613281-1.390624-1.113281-2.207031-1.476562-.183593-.089844-.359375-.144531-.542969-.21875-.882812-.347657-1.820312-.539063-2.769531-.558594h-80c-.953125.019531-1.894531.207031-2.78125.558594-.1875.074219-.363281.128906-.546875.21875-.8125.363281-1.558594.863281-2.207031 1.476562-.113281.113281-.199219.242188-.304687.363281-.289063.292969-.558594.605469-.800782.941407l-32 48c-.148437.277343-.28125.5625-.398437.855469l-32.960938-11.78125c0-.210938 0-.417969 0-.632813.117188-30.449219-21.15625-56.796875-50.945312-63.101563-29.789063-6.304687-59.910157 9.167969-72.140625 37.054688-12.226563 27.882812-3.203125 60.523438 21.613281 78.164062 24.816406 17.644532 58.609375 15.441407 80.929687-5.269531l52.542969 31.863281v24.625l-7.886719 47.34375c-.191406 1.140626-.136718 2.308594.167969 3.425782l6.519531 23.910156-52 24.273438c-21.519531-21.082032-54.824218-24.304688-79.984374-7.738282-25.160157 16.566406-35.363282 48.4375-24.496094 76.535156 10.863281 28.09375 39.851562 44.8125 69.609375 40.144532 29.761719-4.667969 52.238281-29.460938 53.976562-59.535156l48.597657-15.953126 1.738281 6.363282c.953125 3.496094 4.136719 5.914062 7.757812 5.894531h8v32c0 13.253906 10.746094 24 24 24h48c13.257813 0 24-10.746094 24-24v-32h8c3.609375 0 6.773438-2.414063 7.722657-5.894531l1.734374-6.363282 48.601563 15.953126c2.035156 34.785156 31.539063 61.539062 66.355469 60.175781 34.816406-1.367188 62.136718-30.347657 61.441406-65.1875-.695312-34.835938-29.144531-62.707031-63.992188-62.683594zm0 16c6.222657 0 12.382813 1.21875 18.136719 3.582031l-13.894531 20.800782c-.640625-.109376-1.3125-.128907-1.960938-.191407l-31.09375-14.527343c8.292969-6.277344 18.410157-9.671876 28.8125-9.664063zm-47.308593 40.265625c1.050781-6.507812 3.4375-12.722656 7.015625-18.257812l22.222656 10.398437c-3.777344 4.300781-5.875 9.816406-5.917969 15.539063zm47.308593 15.734375c-4.417968 0-8-3.582031-8-8s3.582032-8 8-8c4.421876 0 8 3.582031 8 8s-3.578124 8-8 8zm-25.597656-252.753906c.519532 3.746093 1.921875 7.308593 4.09375 10.402343l-20.550781 12.511719c-2.953125-4.519531-5.117187-9.503906-6.398437-14.746093zm15.75-2.398438c-.441406-4.394531 2.757813-8.316406 7.148438-8.765625 4.394531-.445312 8.320312 2.75 8.769531 7.140625.453125 4.394531-2.742187 8.320313-7.132813 8.777344-2.117187.210937-4.230468-.429687-5.875-1.78125-1.644531-1.351563-2.683593-3.300781-2.882812-5.417969zm-21.09375 37.304688 24.175782-14.65625c1.613281.335937 3.253906.503906 4.902343.503906.820313 0 1.640625-.042969 2.457031-.128906 1.144532-.148438 2.28125-.382813 3.390626-.695313l13.738281 20.609375c-16.015625 7.226563-34.707031 5.050781-48.632813-5.664062zm77.078125-38.152344c-.003906 13.21875-5.480469 25.847656-15.125 34.886719l-13.675781-20.574219c4.601562-6.082031 6.011719-13.996094 3.796875-21.289063-2.21875-7.296874-7.792969-13.089843-14.996094-15.582031v-24.722656c23.066407 3.921875 39.957031 23.882813 40 47.28125zm-56-47.28125v24.730469c-3.925781 1.386718-7.421875 3.777344-10.144531 6.933594-.183594.058593-.367188 0-.542969.082031l-29.023437 10.398437c2.335937-21.339844 18.546875-38.542968 39.710937-42.144531zm-45.855469 81.730469-42.144531 25.550781v-30.929687l34.3125-12.269532c1.699219 6.246094 4.339844 12.195313 7.832031 17.648438zm-58.144531 61.550781h-16v-101.601563l16 24zm-32-120v120h-64v-120zm0 256h-64v-120h64zm-80-237.601563v101.601563h-16v-77.601563zm-108.351562 19.3125c2.148437-3.121093 3.519531-6.710937 4-10.472656l22.898437 8.175782c-1.285156 5.242187-3.449218 10.226562-6.402344 14.746093zm-27.648438-13.710937c0-4.417969 3.582031-8 8-8s8 3.582031 8 8-3.582031 8-8 8-8-3.582031-8-8zm55.714844-5.167969-29.027344-10.398437c-.199219-.074219-.414062 0-.621093-.089844-2.707032-3.121094-6.175782-5.488281-10.066407-6.871094v-24.753906c21.15625 3.597656 37.363281 20.785156 39.714844 42.113281zm-95.714844 5.167969c.042969-23.398437 16.933594-43.359375 40-47.28125v24.753906c-7.1875 2.492188-12.746093 8.277344-14.953125 15.558594-2.207031 7.28125-.792968 15.175781 3.800782 21.242187l-13.71875 20.613282c-9.644532-9.039063-15.121094-21.667969-15.128907-34.886719zm48 48c-6.75-.003906-13.421875-1.441406-19.574219-4.214844l13.726563-20.585937c1.910156.511718 3.875.78125 5.847656.800781 1.652344-.003906 3.304688-.175781 4.921875-.511719l24.136719 14.632813c-8.335937 6.402343-18.546875 9.875-29.058594 9.878906zm53.855469-13.550781c3.488281-5.4375 6.128906-11.371094 7.832031-17.601563l34.3125 12.222657v30.929687zm-55.71875 205.550781c4.417969 0 8 3.582031 8 8s-3.582031 8-8 8-8-3.582031-8-8 3.582031-8 8-8zm24 7.917969c-.042969-5.71875-2.144531-11.234375-5.917969-15.535156l22.222657-10.398438c3.574218 5.535156 5.964843 11.75 7.015624 18.253906zm4.800781-38.214844-31.082031 14.527344c-.644531.066406-1.316406.082031-1.957031.191406l-13.898438-20.839844c15.628907-6.425781 33.496094-4.097656 46.953125 6.121094zm-76.800781 38.296875c-.003906-13.761719 5.925781-26.859375 16.265625-35.945313l13.597656 20.386719c-5.429687 6.214844-7.246093 14.800781-4.800781 22.683594s8.808594 13.929687 16.800781 15.980469v24.453125c-23.921875-3.082031-41.839843-23.4375-41.863281-47.558594zm57.863281 46.96875v-25.144531c.757813-.363282 1.496094-.765625 2.210938-1.207032h.285156l34.738281-11.402343c-3.734375 18.90625-18.382812 33.757812-37.234375 37.753906zm52.847657-59.769531c-1.464844-7.0625-4.121094-13.828125-7.855469-20l46.082031-21.527344 7.261719 26.609375zm43.328124-83.632813 6.601563-39.566406h17.222656v120h-1.886719zm103.824219 128.433594c0 4.417969-3.582031 8-8 8h-48c-4.417969 0-8-3.582031-8-8v-32h18.226563c-1.441406 2.421875-2.210938 5.183594-2.226563 8 0 8.835937 7.164063 16 16 16 8.835938 0 16-7.164063 16-16-.015625-2.816406-.78125-5.578125-2.222656-8h18.222656zm17.890625-48h-1.890625v-120h17.226563l6.597656 39.582031zm27.039063-38.320313 46.078125 21.527344c-3.734375 6.171875-6.390625 12.9375-7.855469 20l-45.488281-14.925781zm53.839843 63.496094 34.734376 11.398438h.289062c.714844.445312 1.449219.847656 2.207031 1.210937v25.144531c-18.847656-3.996093-33.496093-18.851562-37.230469-37.753906zm53.230469 38.382813v-24.453125c8-2.046875 14.363281-8.09375 16.808594-15.980469 2.449219-7.882813.628906-16.472656-4.808594-22.683594l13.601563-20.386719c14.15625 12.433594 19.707031 32.011719 14.183594 50.027344-5.519532 18.011719-21.089844 31.113282-39.785157 33.476563zm0 0"/><path d="m167.980469 433.265625c-2.929688-3.3125-7.988281-3.625-11.304688-.695313-3.3125 2.929688-3.625 7.988282-.695312 11.304688 22.0625 24.066406 53.363281 37.550781 86.007812 37.046875 32.640625.5 63.9375-12.984375 85.992188-37.046875 2.929687-3.316406 2.617187-8.375-.695313-11.304688-3.3125-2.929687-8.375-2.617187-11.304687.695313-19.011719 20.632813-45.9375 32.152344-73.992188 31.65625-28.058593.5-54.988281-11.019531-74.007812-31.65625zm0 0"/><path d="m194.652344 410.859375c-2.664063-3.523437-7.683594-4.21875-11.207032-1.554687-3.523437 2.667968-4.21875 7.683593-1.550781 11.210937 14.523438 18.296875 36.734375 28.796875 60.09375 28.40625 2.941407-.003906 5.878907-.164063 8.800781-.480469 1.863282-.199218 3.671876-.566406 5.496094-.886718 1-.183594 2.023438-.289063 3.007813-.503907 2.175781-.472656 4.289062-1.105469 6.402343-1.753906.589844-.183594 1.214844-.304687 1.804688-.503906 2.105469-.703125 4.136719-1.550781 6.152344-2.398438.570312-.242187 1.152344-.433593 1.703125-.6875 1.851562-.855469 3.609375-1.832031 5.371093-2.824219.6875-.386718 1.40625-.730468 2.078126-1.136718 1.527343-.921875 2.96875-1.960938 4.417968-2.992188.796875-.59375 1.703125-1.144531 2.511719-1.777344 1.207031-.941406 2.328125-1.976562 3.472656-2.992187.941407-.839844 1.917969-1.65625 2.8125-2.550781.898438-.894532 1.808594-1.960938 2.699219-2.960938.757812-.847656 1.597656-1.640625 2.292969-2.527344.082031-.105468.097656-.230468.175781-.335937.296875-.367187.640625-.695313.921875-1.070313 2.667969-3.523437 1.972656-8.542968-1.550781-11.210937-3.523438-2.664063-8.542969-1.96875-11.210938 1.554687-.796875 1.054688-1.710937 2.015626-2.597656 3.007813-.703125.800781-1.375 1.597656-2.136719 2.34375-.761719.742187-1.425781 1.289063-2.144531 1.925781-.910156.800782-1.800781 1.601563-2.765625 2.402344-.617187.472656-1.273437.878906-1.90625 1.328125-1.160156.800781-2.3125 1.648437-3.542969 2.398437-.488281.289063-1.015625.535157-1.511718.800782-1.425782.800781-2.855469 1.601562-4.351563 2.253906-.394531.179688-.800781.3125-1.210937.480469-1.597657.707031-3.277344 1.378906-4.980469 1.9375-.433594.144531-.890625.230469-1.320313.367187-1.699218.511719-3.410156 1.007813-5.160156 1.386719-.761719.167969-1.546875.246094-2.3125.375-1.472656.261719-2.929688.542969-4.425781.703125-2.320313.234375-4.65625.34375-6.992188.328125-18.347656.398437-35.839843-7.757813-47.335937-22.0625zm0 0"/><path d="m241.988281 416.921875c14.921875.457031 28.496094-8.574219 33.839844-22.511719 1.441406-4.179687-.777344-8.730468-4.953125-10.171875-4.179688-1.441406-8.734375.777344-10.171875 4.957031-3.480469 7.164063-10.746094 11.714844-18.714844 11.714844-7.964843 0-15.230469-4.550781-18.710937-11.714844-1.441406-4.179687-5.996094-6.398437-10.171875-4.957031-4.175781 1.441407-6.394531 5.992188-4.957031 10.171875 5.347656 13.9375 18.921874 22.96875 33.839843 22.511719zm0 0"/></svg>