<svg height="464pt" viewBox="0 -24 464 464" width="464pt" xmlns="http://www.w3.org/2000/svg"><path d="m264 184h32c4.417969 0 8-3.582031 8-8v-32c0-4.417969-3.582031-8-8-8h-32c-4.417969 0-8 3.582031-8 8v32c0 4.417969 3.582031 8 8 8zm8-32h16v16h-16zm0 0"/><path d="m264 328h32c4.417969 0 8-3.582031 8-8v-32c0-4.417969-3.582031-8-8-8h-32c-4.417969 0-8 3.582031-8 8v32c0 4.417969 3.582031 8 8 8zm8-32h16v16h-16zm0 0"/><path d="m328 328h32c4.417969 0 8-3.582031 8-8v-32c0-4.417969-3.582031-8-8-8h-32c-4.417969 0-8 3.582031-8 8v32c0 4.417969 3.582031 8 8 8zm8-32h16v16h-16zm0 0"/><path d="m328 184h32c4.417969 0 8-3.582031 8-8v-32c0-4.417969-3.582031-8-8-8h-32c-4.417969 0-8 3.582031-8 8v32c0 4.417969 3.582031 8 8 8zm8-32h16v16h-16zm0 0"/><path d="m392 184h32c4.417969 0 8-3.582031 8-8v-32c0-4.417969-3.582031-8-8-8h-32c-4.417969 0-8 3.582031-8 8v32c0 4.417969 3.582031 8 8 8zm8-32h16v16h-16zm0 0"/><path d="m80 160h16v16h-16zm0 0"/><path d="m80 192h16v16h-16zm0 0"/><path d="m48 192h16v40h-16zm0 0"/><path d="m48 256h16v16h-16zm0 0"/><path d="m80 224h16v48h-16zm0 0"/><path d="m80 288h16v16h-16zm0 0"/><path d="m8 416h224c4.417969 0 8-3.582031 8-8v-48h152c4.417969 0 8-3.582031 8-8v-8c.035156-30.914062 25.085938-55.964844 56-56 4.417969 0 8-3.582031 8-8v-168c0-4.417969-3.582031-8-8-8h-216v-48c0-4.417969-3.582031-8-8-8h-56v-40c0-4.417969-3.582031-8-8-8h-96c-4.417969 0-8 3.582031-8 8v40h-56c-4.417969 0-8 3.582031-8 8v352c0 4.417969 3.582031 8 8 8zm216-304v256h-208v-32h136c4.417969 0 8-3.582031 8-8v-192c0-4.417969-3.582031-8-8-8h-136v-32h208zm-112 208h-96v-176h96zm32-176v176h-16v-176zm-128 256v-16h208v16zm432-280v152.441406c-36.421875 4.117188-63.957031 34.90625-64 71.558594h-144v-224zm-368-104h80v32h-80zm-8 48h152v16h-208v-16zm0 0"/></svg>