<svg height="480pt" viewBox="-28 0 480 480" width="480pt" xmlns="http://www.w3.org/2000/svg"><path d="m33.34375 204.441406c1.484375 2.222656 3.980469 3.558594 6.65625 3.558594h8v136c0 1.730469.5625 3.414062 1.601562 4.800781l24 32c1.507813 2.011719 3.878907 3.199219 6.398438 3.199219h25.222656l6.890625 41.320312c.644531 3.855469 3.980469 6.679688 7.886719 6.679688h8v24c0 4.417969 3.582031 8 8 8h24v8c0 4.417969 3.582031 8 8 8s8-3.582031 8-8v-8h24c4.417969 0 8-3.582031 8-8v-24h8c3.90625 0 7.242188-2.824219 7.886719-6.679688l6.890625-41.320312h25.222656c2.519531 0 4.890625-1.1875 6.398438-3.199219l24-32c1.039062-1.386719 1.601562-3.070312 1.601562-4.800781v-136h8c2.429688 0 4.730469-1.101562 6.246094-3l32-40c1.136718-1.417969 1.753906-3.183594 1.753906-5v-104c-.003906-1.578125-.46875-3.125-1.34375-4.441406l-32-48c-1.484375-2.222656-3.980469-3.558594-6.65625-3.558594h-256c-2.675781 0-5.171875 1.335938-6.65625 3.558594l-32 48c-.875 1.316406-1.33984375 2.863281-1.34375 4.441406v96c.00390625 1.578125.46875 3.125 1.34375 4.441406zm158.65625 243.558594h-48v-16h48zm17.222656-32h-82.445312l-5.328125-32h93.101562zm62.777344-74.664062-16 21.328124v-90.664062c0-4.417969-3.582031-8-8-8s-8 3.582031-8 8v96h-144v-96c0-4.417969-3.582031-8-8-8s-8 3.582031-8 8v90.664062l-16-21.328124v-133.335938h16v32c0 4.417969 3.582031 8 8 8s8-3.582031 8-8v-32h16v66.664062c-.003906 2.285157.972656 4.464844 2.679688 5.984376l24 21.335937c1.46875 1.296875 3.359374 2.015625 5.320312 2.015625h48c1.960938 0 3.851562-.71875 5.320312-2.015625l24-21.335937c1.707032-1.519532 2.683594-3.699219 2.679688-5.984376v-66.664062h16v32c0 4.417969 3.582031 8 8 8s8-3.582031 8-8v-32h16zm-144-133.335938h80v63.070312l-19.039062 16.929688h-41.921876l-19.039062-16.929688zm-112-149.601562 28.28125-42.398438h247.4375l28.28125 42.398438v98.792968l-27.839844 34.808594h-247.878906l-28.28125-42.398438zm0 0"/><path d="m56 176h224c2.675781 0 5.171875-1.335938 6.65625-3.558594l16-24c.875-1.316406 1.339844-2.863281 1.34375-4.441406v-80c-.003906-1.578125-.46875-3.125-1.34375-4.441406l-16-24c-1.484375-2.222656-3.980469-3.558594-6.65625-3.558594h-224c-2.675781 0-5.171875 1.335938-6.65625 3.558594l-16 24c-.875 1.316406-1.339844 2.863281-1.34375 4.441406v80c.003906 1.578125.46875 3.125 1.34375 4.441406l16 24c1.484375 2.222656 3.980469 3.558594 6.65625 3.558594zm-8-109.601562 12.28125-18.398438h215.4375l12.28125 18.398438v75.203124l-12.28125 18.398438h-215.4375l-12.28125-18.398438zm0 0"/><path d="m168 128c13.253906 0 24-10.746094 24-24s-10.746094-24-24-24-24 10.746094-24 24 10.746094 24 24 24zm0-32c4.417969 0 8 3.582031 8 8s-3.582031 8-8 8-8-3.582031-8-8 3.582031-8 8-8zm0 0"/><path d="m104 128c13.253906 0 24-10.746094 24-24s-10.746094-24-24-24-24 10.746094-24 24 10.746094 24 24 24zm0-32c4.417969 0 8 3.582031 8 8s-3.582031 8-8 8-8-3.582031-8-8 3.582031-8 8-8zm0 0"/><path d="m232 128c13.253906 0 24-10.746094 24-24s-10.746094-24-24-24-24 10.746094-24 24 10.746094 24 24 24zm0-32c4.417969 0 8 3.582031 8 8s-3.582031 8-8 8-8-3.582031-8-8 3.582031-8 8-8zm0 0"/><path d="m160 272c3.234375 0 6.152344-1.949219 7.390625-4.9375s.550781-6.429688-1.734375-8.71875l-5.65625-5.65625v-20.6875c0-4.417969-3.582031-8-8-8s-8 3.582031-8 8v24c0 2.121094.84375 4.15625 2.34375 5.65625l8 8c1.5 1.5 3.535156 2.34375 5.65625 2.34375zm0 0"/><path d="m349.464844 247.59375 2.152344.710938c11.355468 3.816406 20.265624 12.730468 24.078124 24.085937l.710938 2.144531c1.082031 3.285156 4.144531 5.503906 7.601562 5.503906 3.457032 0 6.519532-2.21875 7.601563-5.503906l.710937-2.152344c3.816407-11.355468 12.730469-20.265624 24.085938-24.078124l2.144531-.710938c3.285157-1.082031 5.503907-4.144531 5.503907-7.601562 0-3.457032-2.21875-6.519532-5.503907-7.601563-12.382812-4.070313-21.808593-14.21875-24.949219-26.871094l-1.867187-7.457031c-.890625-3.558594-4.089844-6.054688-7.757813-6.054688-3.667968 0-6.867187 2.496094-7.761718 6.054688l-1.863282 7.449219c-3.125 12.648437-12.53125 22.808593-24.902343 26.894531-3.285157 1.082031-5.503907 4.144531-5.503907 7.601562 0 3.457032 2.21875 6.519532 5.503907 7.601563zm34.535156-23.769531c3.625 6.15625 8.445312 11.53125 14.175781 15.800781-5.539062 3.753906-10.34375 8.488281-14.175781 13.976562-3.828125-5.5-8.632812-10.246093-14.175781-14.007812 5.726562-4.261719 10.546875-9.625 14.175781-15.769531zm0 0"/><path d="m309.472656 312.40625c-3.285156 1.082031-5.503906 4.144531-5.503906 7.601562 0 3.457032 2.21875 6.519532 5.503906 7.601563l2.152344.710937c11.355469 3.816407 20.265625 12.730469 24.078125 24.085938l.710937 2.144531c1.082032 3.285157 4.144532 5.503907 7.601563 5.503907s6.519531-2.21875 7.601563-5.503907l.710937-2.152343c3.816406-11.351563 12.730469-20.265626 24.085937-24.078126l2.144532-.710937c3.285156-1.082031 5.503906-4.144531 5.503906-7.601563 0-3.457031-2.21875-6.519531-5.503906-7.601562-12.390625-4.070312-21.820313-14.226562-24.957032-26.886719l-1.867187-7.457031c-.890625-3.558594-4.089844-6.054688-7.757813-6.054688-3.667968 0-6.867187 2.496094-7.761718 6.054688l-1.863282 7.449219c-3.121093 12.644531-12.515624 22.800781-24.878906 26.894531zm34.527344-8.582031c3.625 6.15625 8.445312 11.53125 14.175781 15.800781-5.539062 3.753906-10.34375 8.488281-14.175781 13.976562-3.828125-5.5-8.632812-10.246093-14.175781-14.007812 5.726562-4.261719 10.546875-9.625 14.175781-15.769531zm0 0"/></svg>