<svg height="480pt" viewBox="-72 0 480 480.00041" width="480pt" xmlns="http://www.w3.org/2000/svg"><path d="m160.027344 352c0 26.507812 21.488281 48 48 48 26.507812 0 48-21.492188 48-48s-21.492188-48-48-48c-26.5.027344-47.976563 21.5-48 48zm80 0c0 17.671875-14.328125 32-32 32-17.675782 0-32-14.328125-32-32s14.324218-32 32-32c17.671875 0 32 14.328125 32 32zm0 0"/><path d="m128.027344 352c0 44.183594 35.816406 80 80 80 44.179687 0 80-35.816406 80-80s-35.820313-80-80-80c-44.164063.046875-79.953125 35.835938-80 80zm144 0c0 35.347656-28.65625 64-64 64-35.347656 0-64-28.652344-64-64s28.652344-64 64-64c35.328125.039062 63.957031 28.671875 64 64zm0 0"/><path d="m.265625 201.945312c.890625 3.558594 4.089844 6.054688 7.761719 6.054688.65625.003906 1.3125-.078125 1.949218-.238281l6.671876-1.664063c2.917968 15.027344 16.070312 25.882813 31.378906 25.902344h98.984375l-2.5625 9.0625c-8.285157 4.777344-16.007813 10.464844-23.023438 16.960938-7.148437-8.578126-18.730469-12.054688-29.421875-8.835938s-18.425781 12.515625-19.648437 23.613281c-18.75 3.679688-32.285157 20.09375-32.328125 39.199219v144c0 4.417969 3.582031 8 8 8h98.167968c38.460938 21.332031 85.203126 21.332031 123.664063 0h50.167969c4.417968 0 8-3.582031 8-8v-59.152344c0-.167968-.089844-.304687-.097656-.472656 10.761718-28.511719 10.796874-59.960938.097656-88.496094v-27.878906c0-4.417969-3.582032-8-8-8h-12.242188c-10.035156-12.472656-22.304687-22.960938-36.183594-30.9375l-11.574218-41.0625h12c4.417968 0 8-3.582031 8-8v-112c4.417968 0 8-3.582031 8-8v-48c0-13.253906-10.746094-24-24-24h-112c-13.257813 0-24 10.746094-24 24v48c0 4.417969 3.582031 8 8 8v8h-16c-8.839844 0-16 7.164062-16 16h-56c-17.675782 0-32 14.328125-32 32v5.753906l-9.945313 2.484375c-3.820312.925781-6.390625 4.5-6.050781 8.414063.335938 3.914062 3.480469 6.996094 7.402344 7.25l-1.351563.335937c-3.820312.925781-6.390625 4.5-6.050781 8.414063.335938 3.914062 3.480469 6.996094 7.402344 7.25l-1.351563.335937c-3.820312.925781-6.390625 4.5-6.050781 8.414063.335938 3.914062 3.480469 6.996094 7.402344 7.25l-1.351563.335937c-4.285156 1.074219-6.890625 5.421875-5.816406 9.707031zm231.761719-17.945312h-48v-46.113281l4.941406-9.886719h38.113281l4.945313 9.886719zm-132 80c4.132812.007812 7.96875 2.140625 10.160156 5.648438-.65625.800781-1.289062 1.597656-1.921875 2.351562h-19.503906c1.6875-4.777344 6.195312-7.980469 11.265625-8zm-20 24h17.320312c-3.054687 5.222656-5.726562 10.660156-8 16.265625-.433594-.125-.875-.214844-1.320312-.265625h-8c-4.417969 0-8 3.582031-8 8s3.582031 8 8 8h4.214844c-1.378907 5.261719-2.417969 10.605469-3.105469 16h-25.109375v-24c0-13.253906 10.742187-24 24-24zm-24 160v-96h24c.03125 15.0625 2.742187 30.003906 8 44.121094v51.878906zm48 0v-21.664062c5.699218 7.941406 12.28125 15.210937 19.621094 21.664062zm208 0h-19.625c7.339844-6.453125 13.921875-13.722656 19.625-21.664062zm8-96c.09375 49.714844-32.59375 93.542969-80.273438 107.628906-47.675781 14.082032-98.933594-4.949218-125.867187-46.734375-26.933594-41.789062-23.097657-96.328125 9.417969-133.933593 1.609374-.851563 2.871093-2.238282 3.5625-3.921876 31.484374-33.320312 80.117187-44.058593 122.703124-27.089843 42.589844 16.96875 70.511719 58.207031 70.457032 104.050781zm-67.578125-119.886719c-28.628907-10.816406-60.21875-10.816406-88.847657 0l9.074219-32.113281h70.703125zm-108.421875-208.113281c0-4.417969 3.582031-8 8-8h112c4.417968 0 8 3.582031 8 8v40h-128zm120 56v104h-16v-48c.011718-1.238281-.261719-2.460938-.800782-3.574219l-8-16c-1.363281-2.726562-4.152343-4.441406-7.199218-4.425781h-48c-3.046875-.015625-5.839844 1.699219-7.203125 4.425781l-8 16c-.539063 1.113281-.8125 2.335938-.796875 3.574219v48h-16v-104zm-144 24h16v16h-16zm-88 32c0-8.835938 7.160156-16 16-16h56c0 8.835938 7.160156 16 16 16h16v56c0 4.417969 3.582031 8 8 8h12l-4.523438 16h-103.476562c-7.964844-.035156-14.6875-5.921875-15.777344-13.808594l9.71875-2.398437c4.285156-1.074219 6.890625-5.417969 5.816406-9.703125-.867187-3.359375-3.820312-5.761719-7.289062-5.929688l1.472656-.367187c4.285156-1.074219 6.890625-5.417969 5.816406-9.703125-.859375-3.359375-3.808594-5.765625-7.269531-5.929688l1.453125-.367187c4.285156-1.074219 6.890625-5.417969 5.816406-9.703125-.867187-3.363282-3.828125-5.765625-7.296875-5.929688l1.480469-.367187c2.792969-.679688 5.003906-2.800781 5.800781-5.558594.792969-2.761719.050781-5.734375-1.953125-7.792969s-4.953125-2.886718-7.734375-2.167968l-6.054687 1.480468zm0 0"/><path d="m202.347656 250.320312c-3.105468 3.128907-3.09375 8.183594.027344 11.296876 3.125 3.113281 8.175781 3.113281 11.300781 0 3.121094-3.113282 3.136719-8.167969.03125-11.296876-3.214843-2.941406-8.144531-2.941406-11.359375 0zm0 0"/><path d="m168.265625 270.71875c.964844.386719 2 .578125 3.039063.5625 2.125.003906 4.167968-.828125 5.679687-2.320312 1.460937-1.503907 2.289063-3.507813 2.320313-5.601563.015624-2.675781-1.308594-5.179687-3.527344-6.671875-2.21875-1.496094-5.039063-1.785156-7.511719-.765625-1.007813.363281-1.914063.96875-2.640625 1.757813-1.515625 1.496093-2.355469 3.550781-2.320312 5.679687-.003907 2.101563.832031 4.117187 2.320312 5.601563.746094.765624 1.648438 1.363281 2.640625 1.757812zm0 0"/><path d="m134.503906 289.761719c1.488282 1.539062 3.539063 2.40625 5.683594 2.398437 1.042969-.019531 2.074219-.238281 3.039062-.640625 1.921876-.855469 3.460938-2.394531 4.320313-4.320312.402344-.964844.621094-1.996094.640625-3.039063.007812-2.140625-.859375-4.191406-2.402344-5.679687-.710937-.769531-1.585937-1.371094-2.558594-1.761719-3-1.183594-6.417968-.496094-8.722656 1.761719-.769531.710937-1.371094 1.585937-1.757812 2.558593-.417969.988282-.636719 2.046876-.640625 3.121094.019531 1.042969.238281 2.074219.640625 3.039063.386718.976562.988281 1.851562 1.757812 2.5625zm0 0"/><path d="m124.984375 309.601562c-2.300781-2.273437-5.738281-2.933593-8.71875-1.679687-.953125.386719-1.824219.957031-2.558594 1.679687-.792969.722657-1.394531 1.628907-1.761719 2.636719-.410156.964844-.625 1.996094-.640624 3.042969.011718 2.113281.875 4.132812 2.402343 5.597656.710938.773438 1.585938 1.375 2.558594 1.761719 2.988281 1.292969 6.46875.589844 8.71875-1.761719 1.503906-1.472656 2.34375-3.496094 2.320313-5.597656.015624-1.042969-.171876-2.074219-.558594-3.042969-.394532-.992187-.996094-1.890625-1.761719-2.636719zm0 0"/><path d="m117.707031 357.679688c1.460938-1.535157 2.289063-3.5625 2.320313-5.679688-.015625-.535156-.070313-1.070312-.160156-1.601562-.089844-.5-.25-.984376-.480469-1.4375-.160157-.492188-.402344-.953126-.722657-1.359376-.316406-.480468-.636718-.882812-.957031-1.28125-3.210937-2.960937-8.152343-2.960937-11.359375 0-.367187.390626-.6875.820313-.960937 1.28125-.316407.40625-.5625.867188-.722657 1.359376-.230468.453124-.390624.9375-.476562 1.4375-.09375.53125-.148438 1.066406-.160156 1.601562-.019532 3.25 1.929687 6.1875 4.929687 7.433594 3.003907 1.246094 6.460938.554687 8.75-1.753906zm0 0"/><path d="m113.707031 383.121094c-.410156.34375-.757812.746094-1.042969 1.199218-.238281.398438-.476562.878907-.71875 1.359376-.238281.480468-.320312.960937-.480468 1.519531-.09375.503906-.144532 1.011719-.160156 1.519531.015624.539062.066406 1.074219.160156 1.601562.160156.480469.320312 1.039063.480468 1.519532.160157.480468.480469.878906.71875 1.359375.324219.421875.671876.820312 1.042969 1.199219.324219.40625.734375.734374 1.199219.960937.425781.3125.878906.582031 1.359375.800781.492187.179688 1.003906.3125 1.519531.398438.496094.132812 1.007813.1875 1.519532.160156.539062.027344 1.078124-.027344 1.601562-.160156.515625-.09375 1.023438-.226563 1.519531-.398438.46875-.238281.925781-.503906 1.359375-.800781.4375-.269531.839844-.589844 1.199219-.960937 1.507813-1.503907 2.34375-3.550782 2.320313-5.679688.023437-2.101562-.816407-4.125-2.320313-5.597656-3.144531-3.042969-8.132813-3.042969-11.277344 0zm0 0"/><path d="m145.785156 414.238281c-1.476562-1.527343-3.511718-2.390625-5.640625-2.390625-2.125 0-4.160156.863282-5.640625 2.390625-.769531.710938-1.371094 1.585938-1.757812 2.5625-.410156.988281-.628906 2.046875-.640625 3.121094.007812 2.113281.875 4.132813 2.398437 5.597656 1.5 1.527344 3.542969 2.390625 5.683594 2.402344.507812-.015625 1.015625-.070313 1.519531-.160156.480469-.160157 1.039063-.320313 1.519531-.480469.480469-.160156.960938-.480469 1.359376-.722656.453124-.28125.855468-.632813 1.199218-1.039063 1.503906-1.472656 2.339844-3.496093 2.320313-5.597656.015625-1.066406-.175781-2.128906-.558594-3.121094-.417969-.960937-1.015625-1.828125-1.761719-2.5625zm0 0"/><path d="m176.90625 435.039062c-.34375-.40625-.75-.757812-1.199219-1.039062-.402343-.238281-.882812-.480469-1.359375-.71875-.496094-.179688-1.003906-.316406-1.523437-.402344-1.523438-.308594-3.109375-.167968-4.558594.402344-.992187.394531-1.894531.992188-2.640625 1.757812-.71875.753907-1.3125 1.617188-1.757812 2.5625-.378907.996094-.570313 2.050782-.5625 3.117188-.023438.511719.027343 1.027344.160156 1.519531.085937.519531.21875 1.027344.402344 1.523438.21875.476562.484374.933593.796874 1.359375.230469.464844.558594.875.960938 1.199218.726562.789063 1.632812 1.394532 2.640625 1.757813.960937.410156 1.996094.628906 3.039063.640625.511718-.011719 1.019531-.066406 1.519531-.160156.5625-.160156 1.042969-.320313 1.523437-.480469.476563-.15625.957032-.476563 1.359375-.71875.847657-.636719 1.601563-1.390625 2.238281-2.238281.289063-.429688.527344-.882813.71875-1.359375.246094-.476563.40625-.992188.480469-1.523438.09375-.5.148438-1.007812.160157-1.519531-.019532-1.070312-.234376-2.128906-.640626-3.117188-.386718-.976562-.988281-1.851562-1.757812-2.5625zm0 0"/><path d="m204.984375 440.640625c-.96875.40625-1.859375.972656-2.636719 1.679687-1.460937 1.535157-2.289062 3.5625-2.320312 5.679688.011718 1.046875.230468 2.078125.636718 3.039062.386719.980469.957032 1.875 1.683594 2.640626 1.53125 1.460937 3.558594 2.289062 5.679688 2.320312.535156-.015625 1.070312-.070312 1.597656-.160156.503906-.085938.988281-.25 1.441406-.480469.507813-.175781.992188-.417969 1.4375-.71875l1.203125-.960937c.703125-.777344 1.273438-1.671876 1.679688-2.640626.410156-.960937.625-1.992187.640625-3.039062-.03125-2.117188-.859375-4.144531-2.320313-5.679688-2.324219-2.230468-5.738281-2.886718-8.722656-1.679687zm0 0"/><path d="m250.425781 435.039062c-.746093-.765624-1.644531-1.363281-2.640625-1.757812-2.972656-1.199219-6.371094-.503906-8.640625 1.757812-.769531.710938-1.371093 1.585938-1.757812 2.5625-.40625.988282-.621094 2.046876-.640625 3.117188.011718.511719.066406 1.019531.160156 1.519531.074219.53125.234375 1.046875.480469 1.523438.191406.476562.433593.929687.71875 1.359375.28125.449218.632812.855468 1.039062 1.199218 1.464844 1.523438 3.488281 2.390626 5.601563 2.398438 1.046875-.011719 2.078125-.230469 3.039062-.640625 1.007813-.363281 1.914063-.96875 2.640625-1.757813.402344-.324218.730469-.734374.960938-1.199218.3125-.425782.582031-.882813.800781-1.359375.179688-.496094.3125-1.003907.398438-1.523438.132812-.492187.1875-1.007812.160156-1.519531.007812-1.066406-.179688-2.121094-.558594-3.117188-.445312-.945312-1.042969-1.808593-1.761719-2.5625zm0 0"/><path d="m281.546875 414.238281c-1.898437-1.855469-4.589844-2.660156-7.195313-2.148437-2.605468.511718-4.789062 2.273437-5.847656 4.710937-.410156.988281-.625 2.046875-.636718 3.121094.007812 2.113281.875 4.132813 2.398437 5.597656.363281.390625.765625.738281 1.199219 1.039063.402344.242187.882812.480468 1.359375.722656.480469.238281 1.042969.320312 1.523437.480469.527344.09375 1.0625.148437 1.597656.160156 2.113282-.027344 4.125-.890625 5.601563-2.402344 1.523437-1.464843 2.390625-3.484375 2.398437-5.597656-.011718-1.074219-.226562-2.132813-.640624-3.121094-.386719-.976562-.988282-1.851562-1.757813-2.5625zm0 0"/><path d="m296.746094 396.71875c1.039062.015625 2.074218-.171875 3.039062-.558594.960938-.417968 1.828125-1.015625 2.5625-1.761718 1.523438-1.496094 2.390625-3.539063 2.398438-5.679688-.007813-2.113281-.875-4.132812-2.398438-5.597656-.710937-.773438-1.585937-1.375-2.5625-1.761719-1.976562-.800781-4.183594-.800781-6.160156 0-.972656.386719-1.847656.988281-2.558594 1.761719-1.503906 1.472656-2.339844 3.496094-2.320312 5.597656-.019532 2.128906.816406 4.175781 2.320312 5.679688 1.511719 1.492187 3.554688 2.328124 5.679688 2.320312zm0 0"/><path d="m298.347656 346.320312c-.367187.390626-.6875.820313-.960937 1.28125-.316407.40625-.5625.867188-.722657 1.359376-.230468.453124-.390624.9375-.476562 1.4375-.09375.53125-.148438 1.066406-.160156 1.601562 0 4.417969 3.582031 8 8 8 4.417968 0 8-3.582031 8-8-.015625-.535156-.070313-1.070312-.160156-1.601562-.089844-.5-.25-.984376-.480469-1.4375-.160157-.492188-.402344-.953126-.722657-1.359376-.273437-.460937-.59375-.890624-.957031-1.28125-3.210937-2.960937-8.152343-2.960937-11.359375 0zm0 0"/><path d="m293.625 322.640625c.992188.402344 2.050781.621094 3.121094.640625 2.113281-.011719 4.136718-.875 5.601562-2.402344.40625-.34375.757813-.746094 1.039063-1.199218.238281-.398438.480469-.878907.71875-1.359376.207031-.492187.367187-1 .480469-1.519531.09375-.503906.144531-1.011719.160156-1.519531-.011719-1.046875-.230469-2.078125-.640625-3.042969-.367188-1.007812-.96875-1.914062-1.757813-2.636719-3.144531-3.050781-8.140625-3.050781-11.28125 0-.765625.746094-1.363281 1.644532-1.761718 2.636719-.382813.96875-.574219 2-.558594 3.042969-.019532 2.101562.816406 4.125 2.320312 5.597656.710938.773438 1.585938 1.375 2.558594 1.761719zm0 0"/><path d="m270.265625 289.761719c1.472656 1.511719 3.488281 2.375 5.601563 2.398437 2.140624.007813 4.191406-.859375 5.679687-2.398437.769531-.710938 1.371094-1.585938 1.757813-2.5625.402343-.964844.621093-1.996094.640624-3.039063.007813-2.140625-.859374-4.191406-2.398437-5.679687-3.164063-3-8.121094-3-11.28125 0-1.519531 1.496093-2.355469 3.546875-2.320313 5.679687-.058593 2.113282.785157 4.148438 2.320313 5.601563zm0 0"/><path d="m241.707031 270.71875c2.460938 1.011719 5.261719.734375 7.476563-.742188 2.214844-1.476562 3.550781-3.957031 3.5625-6.617187.035156-2.128906-.800782-4.183594-2.320313-5.679687-2.304687-2.257813-5.722656-2.945313-8.71875-1.757813-.976562.386719-1.851562.988281-2.5625 1.757813-1.539062 1.488281-2.40625 3.539062-2.398437 5.679687.023437 2.113281.886718 4.125 2.398437 5.601563.734375.746093 1.601563 1.34375 2.5625 1.757812zm0 0"/></svg>