<svg height="480pt" viewBox="0 0 480 480" width="480pt" xmlns="http://www.w3.org/2000/svg"><path d="m360 112h-240c-4.417969 0-8 3.582031-8 8v208c0 4.417969 3.582031 8 8 8h240c4.417969 0 8-3.582031 8-8v-208c0-4.417969-3.582031-8-8-8zm-8 208h-224v-192h224zm0 0"/><path d="m470.6875 80.113281-48 8c-3.855469.640625-6.6875 3.976563-6.6875 7.886719v32h-16v-40c0-4.417969-3.582031-8-8-8h-64v-16h40c3.910156 0 7.246094-2.832031 7.886719-6.6875l8-48c.386719-2.320312-.265625-4.691406-1.785157-6.484375-1.519531-1.792969-3.75-2.828125-6.101562-2.828125h-280c-2.351562 0-4.582031 1.035156-6.101562 2.828125-1.519532 1.792969-2.171876 4.164063-1.785157 6.484375l8 48c.640625 3.855469 3.976563 6.6875 7.886719 6.6875h48v16h-64c-4.417969 0-8 3.582031-8 8v40h-16v-32c0-3.910156-2.832031-7.246094-6.6875-7.886719l-48-8c-2.320312-.386719-4.691406.265625-6.484375 1.785157-1.792969 1.519531-2.828125 3.75-2.828125 6.101562v280c0 4.417969 3.582031 8 8 8 .441406 0 .878906-.039062 1.3125-.113281l48-8c3.855469-.640625 6.6875-3.976563 6.6875-7.886719v-40h16v40c0 4.417969 3.582031 8 8 8h121.472656c-.949218 2.5625-1.445312 5.269531-1.472656 8v16c-4.417969 0-8 3.582031-8 8v8h-16c0-4.417969-3.582031-8-8-8s-8 3.582031-8 8v16c0 4.417969 3.582031 8 8 8s8-3.582031 8-8h16v8c0 4.417969 3.582031 8 8 8h8v32c0 4.417969 3.582031 8 8 8h32c4.417969 0 8-3.582031 8-8v-32h8c4.417969 0 8-3.582031 8-8v-32c0-4.417969-3.582031-8-8-8v-16c-.027344-2.730469-.523438-5.4375-1.472656-8h121.472656c4.417969 0 8-3.582031 8-8v-40h16v40c0 3.910156 2.832031 7.246094 6.6875 7.886719l48 8c.433594.074219.871094.113281 1.3125.113281 4.417969 0 8-3.582031 8-8v-280c0-2.351562-1.035156-4.582031-2.828125-6.101562-1.792969-1.519532-4.164063-2.171876-6.484375-1.785157zm-70.6875 95.886719h16v96h-16zm16-32v16h-16v-16zm-104-64h-16v-16h16zm-112 0v-16h80v16zm-94.550781-64h261.101562l-5.328125 32h-250.445312zm62.550781 48h16v16h-16zm-104 112h16v96h-16zm16-32v16h-16v-16zm-32 209.222656-32 5.328125v-261.101562l32 5.328125zm16-49.222656v-16h16v16zm184 160h-16v-24h16zm16-40h-48v-16h48zm-8-48v16h-32v-16c0-4.417969 3.582031-8 8-8h16c4.417969 0 8 3.582031 8 8zm128-24h-288v-256h288zm16-48v-16h16v16zm64 54.550781-32-5.328125v-250.445312l32-5.328125zm0 0"/><path d="m152 152h16v16h-16zm0 0"/><path d="m184 152h16v16h-16zm0 0"/><path d="m216 152h16v16h-16zm0 0"/><path d="m248 152h16v16h-16zm0 0"/><path d="m280 152h16v16h-16zm0 0"/><path d="m312 152h16v16h-16zm0 0"/><path d="m152 184h16v16h-16zm0 0"/><path d="m184 184h16v16h-16zm0 0"/><path d="m216 184h16v16h-16zm0 0"/><path d="m248 184h16v16h-16zm0 0"/><path d="m280 184h16v16h-16zm0 0"/><path d="m312 184h16v16h-16zm0 0"/><path d="m152 216h16v16h-16zm0 0"/><path d="m184 216h16v16h-16zm0 0"/><path d="m216 216h16v16h-16zm0 0"/><path d="m248 216h16v16h-16zm0 0"/><path d="m280 216h16v16h-16zm0 0"/><path d="m312 216h16v16h-16zm0 0"/><path d="m152 248h16v16h-16zm0 0"/><path d="m184 248h16v16h-16zm0 0"/><path d="m216 248h16v16h-16zm0 0"/><path d="m248 248h16v16h-16zm0 0"/><path d="m280 248h16v16h-16zm0 0"/><path d="m312 248h16v16h-16zm0 0"/><path d="m152 280h16v16h-16zm0 0"/><path d="m184 280h16v16h-16zm0 0"/><path d="m216 280h16v16h-16zm0 0"/><path d="m248 280h16v16h-16zm0 0"/><path d="m280 280h16v16h-16zm0 0"/><path d="m312 280h16v16h-16zm0 0"/></svg>