<svg height="480pt" viewBox="-64 0 480 480" width="480pt" xmlns="http://www.w3.org/2000/svg"><path d="m128.003906 240h96c4.417969 0 8-3.582031 8-8v-48c0-4.417969-3.582031-8-8-8h-96c-4.417968 0-8 3.582031-8 8v48c0 4.417969 3.582032 8 8 8zm8-48h80v32h-80zm0 0"/><path d="m80.003906 456c0 13.253906 10.742188 24 24 24h144c13.253906 0 24-10.746094 24-24v-45.105469l38.144532-45.773437c.28125-.398438.527343-.824219.726562-1.273438.203125-.296875.378906-.605468.535156-.925781.378906-.929687.582032-1.917969.59375-2.921875v-216.128906c22.753906-1.714844 40.261719-20.8125 40-43.632813v-68.796875c.046875-5.941406-3.035156-11.46875-8.113281-14.554687-4.882813-2.996094-10.980469-3.203125-16.054687-.542969l-23.832032 12.320312c-2.101562 1.09375-4.554687 1.289063-6.800781.535157-2.414063-.820313-4.390625-2.589844-5.472656-4.902344-6.917969-14.792969-21.753907-24.2578125-38.078125-24.296875h-155.296875c-16.324219.0429688-31.15625 9.507812-38.074219 24.296875-1.078125 2.3125-3.054688 4.082031-5.46875 4.902344-2.25.757812-4.707031.5625-6.808594-.535157l-23.839844-12.351562c-5.074218-2.664062-11.175781-2.457031-16.058593.542969-5.074219 3.085937-8.152344 8.613281-8.10156275 14.550781v68.800781c-.26562525 22.820313 17.24218775 41.917969 39.99999975 43.632813v216.160156c.011719 1.003906.210938 1.992188.589844 2.921875.15625.320313.335938.628906.539062.925781.199219.449219.441407.875.726563 1.273438l38.144531 45.773437zm216-104h-240v-32h32v16h16v-16h16v16h16v-16h16v16h16v-16h16v16h16v-16h16v16h16v-16h16v16h16v-16h32zm-240-80h16v32h-16zm48 0v32h-16v-32zm32 0v32h-16v-32zm32 0v32h-16v-32zm32 0v32h-16v-32zm32 0v32h-16v-32zm32 0v32h-16v-32zm32 0v32h-16v-32zm0-16h-240v-112h240zm-9.082031 112-26.664063 32h-168.511718l-26.664063-32zm-190.917969 48h160v16h-160zm160 40c0 4.417969-3.582031 8-8 8h-144c-4.417968 0-8-3.582031-8-8v-8h160zm-240-355.761719v-68.796875c0-.511718.230469-.761718.800782-.898437l23.847656 12.359375c5.925781 3.097656 12.859375 3.644531 19.199218 1.511718 6.523438-2.175781 11.878907-6.917968 14.824219-13.132812 4.261719-9.253906 13.492188-15.207031 23.679688-15.28125h155.296875c10.171875.074219 19.390625 6.011719 23.664062 15.246094 2.945313 6.21875 8.296875 10.960937 14.824219 13.136718 6.335937 2.136719 13.273437 1.589844 19.199219-1.519531l24.230468-12.335937c.292969.195312.453126.53125.425782.878906v68.800781c.328125 14.984375-11.523438 27.414063-26.503906 27.792969h-266.976563c-14.972656-.375-26.824219-12.785156-26.511719-27.761719zm0 0"/></svg>