<svg height="480pt" viewBox="-48 0 480 480.00058" width="480pt" xmlns="http://www.w3.org/2000/svg"><path d="m64 72v208c0 4.417969 3.582031 8 8 8h152c3.164062 0 6.027344-1.863281 7.3125-4.753906l32-72c.453125-1.019532.6875-2.128906.6875-3.246094h16v164.886719l-85.894531 93.707031c-2.988281 3.253906-2.769531 8.316406.488281 11.300781 3.253906 2.988281 8.316406 2.769531 11.300781-.488281l33.945313-37.03125 45.601562 15.199219c1.640625.546875 3.414063.546875 5.054688 0l45.601562-15.199219 33.941406 37.03125c2.988282 3.257812 8.050782 3.476562 11.304688.488281 3.257812-2.984375 3.476562-8.046875.488281-11.300781l-85.832031-93.707031v-76.886719h16c0 4.417969 3.582031 8 8 8s8-3.582031 8-8v-16c0-4.417969-3.582031-8-8-8s-8 3.582031-8 8h-16v-72h16c4.417969 0 8-3.582031 8-8h8c13.253906 0 24-10.746094 24-24s-10.746094-24-24-24h-8c0-4.417969-3.582031-8-8-8h-48c0-1.117188-.234375-2.226562-.6875-3.246094l-32-72c-1.285156-2.890625-4.148438-4.753906-7.3125-4.753906h-152c-4.417969 0-8 3.582031-8 8zm216 324.566406v40.328125l-28.320312-9.429687zm44.320312 30.898438-28.320312 9.429687v-40.328125zm3.679688-259.464844c4.417969 0 8 3.582031 8 8s-3.582031 8-8 8h-8v-16zm-24-8v32h-40v-32zm-56-14.304688v60.609376l-24 54.007812v-44.3125c0-4.417969-3.582031-8-8-8s-8 3.582031-8 8v56h-16v-192h16v32c0 4.417969 3.582031 8 8 8s8-3.582031 8-8v-20.3125zm-168-65.695312h96v192h-96zm0 0"/><path d="m216 136c-4.417969 0-8 3.582031-8 8v8c0 4.417969 3.582031 8 8 8s8-3.582031 8-8v-8c0-4.417969-3.582031-8-8-8zm0 0"/><path d="m32 272h16v16h-16zm0 0"/><path d="m0 272h16v16h-16zm0 0"/><path d="m72 304h16v16h-16zm0 0"/><path d="m72 336h16v16h-16zm0 0"/><path d="m31.597656 309.660156 11.3125-11.316406 11.316406 11.316406-11.316406 11.3125zm0 0"/><path d="m8.964844 332.289062 11.316406-11.3125 11.3125 11.3125-11.3125 11.316407zm0 0"/><path d="m32 64h16v16h-16zm0 0"/><path d="m0 64h16v16h-16zm0 0"/><path d="m72 32h16v16h-16zm0 0"/><path d="m72 0h16v16h-16zm0 0"/><path d="m31.597656 42.34375 11.3125-11.3125 11.3125 11.3125-11.3125 11.316406zm0 0"/><path d="m8.964844 19.714844 11.316406-11.316406 11.3125 11.316406-11.3125 11.3125zm0 0"/></svg>