<svg height="456pt" viewBox="-56 0 456 456.15497" width="456pt" xmlns="http://www.w3.org/2000/svg"><path d="m316.917969 406.265625c3.109375-2.355469 4.046875-6.621094 2.214843-10.0625-1.832031-3.445313-5.894531-5.046875-9.582031-3.789063l-1.808593.601563-35.664063-51.519531v-93.496094h16c0 4.417969 3.582031 8 8 8s8-3.582031 8-8v-16c0-4.417969-3.582031-8-8-8s-8 3.582031-8 8h-16v-49.472656c9.554687-3.378906 15.957031-12.394532 16-22.527344v-8h8c4.417969 0 8-3.582031 8-8h8c13.253906 0 24-10.746094 24-24s-10.746094-24-24-24h-8c0-4.417969-3.582031-8-8-8h-64c-2.0625.011719-4.039063.816406-5.519531 2.246094-7.261719-6.5625-16.691406-10.210938-26.480469-10.246094h-16c-4.417969 0-8 3.582031-8 8v24h-51.054687l-1.328126-2.664062c-6.40625-12.84375-5.453124-28.128907 2.496094-40.078126l.542969-.800781c.175781-.3125.332031-.632812.472656-.960937.09375-.199219.207031-.382813.285157-.601563.359374-.859375.558593-1.777343.585937-2.710937.003906-.0625.003906-.121094 0-.183594 0-.128906-.074219-.238281-.074219-.367188-.039062-.804687-.199218-1.597656-.476562-2.351562-.054688-.195312-.117188-.382812-.195313-.570312 0-.09375-.054687-.191407-.09375-.285157l-3.542969-7.089843c-6.40625-12.84375-5.453124-28.128907 2.496094-40.078126l.542969-.800781c1.644531-2.457031 1.804687-5.621093.410156-8.226562-1.394531-2.609375-4.109375-4.23437525-7.066406-4.230469-66.023437.0585938-119.621094 53.402344-120 119.425781v.222657.351562c.074219 66.242188 53.757813 119.925781 120 120 2.949219 0 5.664063-1.625 7.054687-4.226562 1.390626-2.601563 1.238282-5.757813-.398437-8.214844l-.542969-.796875c-7.949218-11.953125-8.902344-27.238281-2.496094-40.082031l3.542969-7.085938c0-.097656.054688-.203125.09375-.289062.042969-.089844.128907-.375.195313-.570313.277344-.753906.4375-1.546875.476562-2.351563 0-.125.074219-.238281.074219-.367187.003906-.0625.003906-.121094 0-.183594-.019531-.925781-.203125-1.835937-.542969-2.695312-.082031-.214844-.195312-.402344-.289062-.601563-.136719-.328125-.296875-.648437-.472656-.960937l-.542969-.796875c-7.949219-11.949219-8.902344-27.238282-2.496094-40.082032l1.289063-2.695312h51.054687v24c0 4.417969 3.582031 8 8 8h16c9.789063-.035156 19.21875-3.683594 26.480469-10.246094 1.480468 1.429688 3.457031 2.234375 5.519531 2.246094h8v8c.042969 10.132812 6.445313 19.148438 16 22.527344v158.96875l-35.664063 51.519531-1.808593-.601563c-3.691407-1.257812-7.75.34375-9.582031 3.789063-1.832032 3.441406-.894532 7.707031 2.214843 10.0625l-25.738281 37.183594c-1.707031 2.347656-2.007812 5.433593-.789062 8.070312 1.222656 2.632813 3.773437 4.398438 6.667968 4.613281 2.894532.214844 5.679688-1.15625 7.273438-3.582031l28.089844-40.550781 29.335937 9.761719v26.238281c0 4.417969 3.582031 8 8 8s8-3.582031 8-8v-26.238281l29.335937-9.761719 28.085938 40.566406c2.558594 3.515625 7.449219 4.34375 11.023438 1.871094 3.574218-2.472656 4.519531-7.34375 2.128906-10.972656zm-209.441407-294.265625h-78.101562l11.847656-10.398438c18.398438-16.070312 41.273438-26.121093 65.550782-28.800781-4.488282 12.726563-4.238282 26.644531.703124 39.199219zm-.800781-95.144531c-4.511719 12.921875-4.152343 27.046875 1.007813 39.71875-28.503906 2.617187-55.453125 14.175781-77 33.027343l-12.796875 11.199219c8.378906-44.203125 44.164062-78.046875 88.765625-83.945312zm-88.8125 122.34375 12.796875 11.199219c21.539063 18.839843 48.480469 30.394531 76.976563 33.007812-5.160157 12.675781-5.519531 26.800781-1.007813 39.722656-44.597656-5.894531-80.382812-39.730468-88.765625-83.929687zm88.910157 28c-24.277344-2.679688-47.152344-12.730469-65.550782-28.800781l-11.847656-10.398438h78.101562c-4.941406 12.554688-5.191406 26.472656-.703124 39.199219zm205.304687-55.199219c4.417969 0 8 3.582031 8 8s-3.582031 8-8 8h-8v-16zm-72-8h48v32h-48zm-40 40h-8v-48h8c13.253906 0 24 10.746094 24 24s-10.746094 24-24 24zm72 8v8c0 4.417969-3.582031 8-8 8s-8-3.582031-8-8v-8zm-35.855469 246.289062 19.855469-28.6875v35.292969zm35.855469 6.613282v-35.300782l19.855469 28.679688zm0 0"/></svg>