<svg height="480pt" viewBox="0 -24 480 480" width="480pt" xmlns="http://www.w3.org/2000/svg"><path d="m448 96h-96v-72c0-13.253906-10.746094-24-24-24h-96c-13.253906 0-24 10.746094-24 24v72h-176c-17.671875 0-32 14.328125-32 32v272c0 17.671875 14.328125 32 32 32h416c17.671875 0 32-14.328125 32-32v-272c0-17.671875-14.328125-32-32-32zm-224-72c0-4.417969 3.582031-8 8-8h96c4.417969 0 8 3.582031 8 8v72h-16v-56c0-4.417969-3.582031-8-8-8h-64c-4.417969 0-8 3.582031-8 8v56h-16zm56 36.6875-12.6875-12.6875h25.375zm24-1.375v25.375l-12.6875-12.6875zm-35.3125 12.6875-12.6875 12.6875v-25.375zm11.3125 11.3125 12.6875 12.6875h-25.375zm-264 92.6875h80v176h-80zm16-64h64v48h-80v-32c0-8.835938 7.164062-16 16-16zm0 304c-8.835938 0-16-7.164062-16-16v-32h80v48zm432-16c0 8.835938-7.164062 16-16 16h-336v-304h336c8.835938 0 16 7.164062 16 16zm0 0"/><path d="m376 128h-192c-22.082031.027344-39.972656 17.917969-40 40v192c.027344 22.082031 17.917969 39.972656 40 40h192c22.082031-.027344 39.972656-17.917969 40-40v-192c-.027344-22.082031-17.917969-39.972656-40-40zm24 232c0 13.253906-10.746094 24-24 24h-192c-13.253906 0-24-10.746094-24-24v-192c0-13.253906 10.746094-24 24-24h192c13.253906 0 24 10.746094 24 24zm0 0"/><path d="m376 160h-192c-4.417969 0-8 3.582031-8 8v192c0 4.417969 3.582031 8 8 8h192c4.417969 0 8-3.582031 8-8v-192c0-4.417969-3.582031-8-8-8zm-8 96h-80v-80h80zm-96-80v80h-80v-80zm-80 96h80v80h-80zm96 80v-80h80v80zm0 0"/><path d="m232 240c13.253906 0 24-10.746094 24-24s-10.746094-24-24-24-24 10.746094-24 24 10.746094 24 24 24zm0-32c4.417969 0 8 3.582031 8 8s-3.582031 8-8 8-8-3.582031-8-8 3.582031-8 8-8zm0 0"/><path d="m248.976562 295.03125c-9.5-9.0625-24.445312-9.0625-33.945312 0-9.375 9.375-9.375 24.570312 0 33.945312 9.375 9.371094 24.570312 9.371094 33.945312 0 9.371094-9.375 9.371094-24.570312 0-33.945312zm-11.320312 22.625c-3.164062 3.023438-8.148438 3.023438-11.3125 0-3.125-3.125-3.125-8.191406 0-11.316406 3.125-3.121094 8.1875-3.121094 11.3125 0 3.125 3.125 3.125 8.191406 0 11.316406zm0 0"/><path d="m328 240c13.253906 0 24-10.746094 24-24s-10.746094-24-24-24-24 10.746094-24 24 10.746094 24 24 24zm0-32c4.417969 0 8 3.582031 8 8s-3.582031 8-8 8-8-3.582031-8-8 3.582031-8 8-8zm0 0"/><path d="m311.03125 295.023438c-9.375 9.375-9.375 24.570312 0 33.945312 9.375 9.371094 24.570312 9.371094 33.945312 0 9.371094-9.375 9.371094-24.570312 0-33.945312-9.5-9.0625-24.445312-9.0625-33.945312 0zm22.625 22.632812c-3.164062 3.023438-8.148438 3.023438-11.3125 0-3.125-3.125-3.125-8.191406 0-11.316406 3.125-3.121094 8.1875-3.121094 11.3125 0 3.125 3.125 3.125 8.191406 0 11.316406zm0 0"/><path d="m67.199219 201.601562-32 24c-3.535157 2.648438-4.25 7.664063-1.597657 11.199219 2.648438 3.535157 7.664063 4.25 11.199219 1.597657l32-24c3.535157-2.648438 4.25-7.664063 1.597657-11.199219-2.648438-3.535157-7.664063-4.25-11.199219-1.597657zm0 0"/><path d="m67.199219 241.601562-32 24c-3.535157 2.648438-4.25 7.664063-1.597657 11.199219 2.648438 3.535157 7.664063 4.25 11.199219 1.597657l32-24c3.535157-2.648438 4.25-7.664063 1.597657-11.199219-2.648438-3.535157-7.664063-4.25-11.199219-1.597657zm0 0"/><path d="m67.199219 281.601562-32 24c-3.535157 2.648438-4.25 7.664063-1.597657 11.199219 2.648438 3.535157 7.664063 4.25 11.199219 1.597657l32-24c3.535157-2.648438 4.25-7.664063 1.597657-11.199219-2.648438-3.535157-7.664063-4.25-11.199219-1.597657zm0 0"/></svg>