<svg height="480pt" viewBox="-48 0 480 480" width="480pt" xmlns="http://www.w3.org/2000/svg"><path d="m176 272h32c4.417969 0 8-3.582031 8-8v-32c0-4.417969-3.582031-8-8-8h-32c-4.417969 0-8 3.582031-8 8v32c0 4.417969 3.582031 8 8 8zm8-32h16v16h-16zm0 0"/><path d="m192 432c26.507812 0 48-21.492188 48-48s-21.492188-48-48-48-48 21.492188-48 48c.027344 26.5 21.5 47.972656 48 48zm0-80c17.671875 0 32 14.328125 32 32s-14.328125 32-32 32-32-14.328125-32-32 14.328125-32 32-32zm0 0"/><path d="m80 224h-48c-4.417969 0-8 3.582031-8 8v24h-16c-4.417969 0-8 3.582031-8 8v208c0 4.417969 3.582031 8 8 8h360c4.417969 0 8-3.582031 8-8v-248c0-4.417969-3.582031-8-8-8h-21.390625l11.421875-40h1.96875c13.253906 0 24-10.746094 24-24v-128c0-13.253906-10.746094-24-24-24h-144c-13.253906 0-24 10.746094-24 24v128c0 13.253906 10.746094 24 24 24h1.96875l4.566406 16h-78.535156c-4.417969 0-8 3.582031-8 8v16h-24c-4.417969 0-8 3.582031-8 8v32h-16v-24c0-4.417969-3.582031-8-8-8zm-40 16h32v16h-32zm-24 224v-160h123.046875c-26.878906 17.742188-43.050781 47.792969-43.050781 80s16.171875 62.257812 43.050781 80zm256-80c0 44.183594-35.816406 80-80 80s-80-35.816406-80-80 35.816406-80 80-80c44.164062.046875 79.953125 35.835938 80 80zm-27.046875 80c26.878906-17.742188 43.050781-47.792969 43.050781-80s-16.171875-62.257812-43.050781-80h115.046875v160zm115.046875-176h-112v-56h112zm-152-136v-128c0-4.417969 3.582031-8 8-8h144c4.417969 0 8 3.582031 8 8v128c0 4.417969-3.582031 8-8 8h-144c-4.417969 0-8-3.582031-8-8zm26.609375 24h106.78125l-11.421875 40h-81.96875v-16c0-4.417969-3.582031-8-8-8h-.800781zm-82.609375 32h80v80h-80zm-40 64c4.417969 0 8-3.582031 8-8v-32h16v56h-120v-16zm0 0"/><path d="m248 144h80c13.253906 0 24-10.746094 24-24v-64c0-13.253906-10.746094-24-24-24h-80c-13.253906 0-24 10.746094-24 24v64c0 13.253906 10.746094 24 24 24zm-8-88c0-4.417969 3.582031-8 8-8h80c4.417969 0 8 3.582031 8 8v64c0 4.417969-3.582031 8-8 8h-80c-4.417969 0-8-3.582031-8-8zm0 0"/><path d="m328 320h16v16h-16zm0 0"/><path d="m288 112c13.253906 0 24-10.746094 24-24s-10.746094-24-24-24-24 10.746094-24 24 10.746094 24 24 24zm0-32c4.417969 0 8 3.582031 8 8s-3.582031 8-8 8-8-3.582031-8-8 3.582031-8 8-8zm0 0"/></svg>