<svg height="480pt" viewBox="0 -56 480.00841 480" width="480pt" xmlns="http://www.w3.org/2000/svg"><path d="m336.007812 184.042969c0-83.949219-68.050781-152-152-152-83.945312 0-152 68.050781-152 152 0 83.945312 68.054688 152 152 152 83.910157-.09375 151.90625-68.09375 152-152zm-88.488281 120.167969c-.277343-.074219-.5625-.128907-.847656-.167969h-102.664063v-24h68.6875l-10.34375 10.34375 11.3125 11.3125 21.65625-21.65625h44.921876c-9.644532 9.640625-20.671876 17.785156-32.722657 24.167969zm-199.511719-120.167969c-.144531-59.023438 37.792969-111.398438 93.917969-129.664063 56.121094-18.261718 117.621094 1.757813 152.234375 49.5625 34.617188 47.804688 34.449219 112.476563-.414062 160.101563h-42.402344l42.34375-42.34375-11.3125-11.3125-53.679688 53.65625h-49.375l106.34375-106.34375-11.3125-11.3125-117.65625 117.65625h-20.6875c-4.417968 0-8 3.582031-8 8v35.789062c-48.640624-22-79.921874-70.40625-80-123.789062zm0 0"/><path d="m472.007812 264.042969h-122.328124c34.386718-71.183594 19.464843-156.378907-37.074219-211.632813-56.539063-55.253906-142.054688-68.21875-212.429688-32.203125s-109.878906 112.957031-98.132812 191.136719c11.746093 78.175781 72.113281 140.113281 149.964843 153.859375v2.839844h304c4.417969 0 8-3.582031 8-8v-40h8c4.417969 0 8-3.582031 8-8v-40c0-4.417969-3.582031-8-8-8zm-456-80c0-92.785157 75.214844-168 168-168 92.785157 0 168 75.214843 168 168 0 92.78125-75.214843 168-168 168-92.738281-.105469-167.894531-75.261719-168-168zm432 168h-189.09375c10.171876-4.546875 19.910157-10.007813 29.09375-16.3125v.3125h16v-12.6875c1.273438-1.097657 2.5625-2.179688 3.808594-3.3125h12.191406v16h16v-16h16v16h16v-16h16v16h16v-16h16v16h16v-16h16zm16-48h-140.6875c6.5-7.515625 12.386719-15.542969 17.601563-24h123.085937zm0 0"/><path d="m106.351562 250.382812 144-144 11.316407 11.3125-144.003907 144zm0 0"/><path d="m82.351562 202.386719 119.996094-120 11.316406 11.3125-120 120zm0 0"/><path d="m74.351562 138.382812 64.003907-64 11.3125 11.3125-64.003907 64.003907zm0 0"/><path d="m384.007812.0429688h16v16.0000002h-16zm0 0"/><path d="m384.007812 48.042969h16v16h-16zm0 0"/><path d="m360.007812 24.042969h16v16h-16zm0 0"/><path d="m408.007812 24.042969h16v16h-16zm0 0"/><path d="m416.007812 104.042969h16v16h-16zm0 0"/><path d="m416.007812 136.042969h16v16h-16zm0 0"/><path d="m400.007812 120.042969h16v16h-16zm0 0"/><path d="m432.007812 120.042969h16v16h-16zm0 0"/></svg>