<svg height="480pt" viewBox="0 -80 480 480" width="480pt" xmlns="http://www.w3.org/2000/svg"><path d="m472 0h-464c-4.417969 0-8 3.582031-8 8v200c0 4.417969 3.582031 8 8 8h65.863281l-17.726562 94.527344c-.4375 2.339844.1875 4.753906 1.707031 6.582031 1.519531 1.832031 3.777344 2.890625 6.15625 2.890625h352c2.378906 0 4.636719-1.058594 6.15625-2.890625 1.519531-1.828125 2.144531-4.242187 1.707031-6.582031l-17.726562-94.527344h65.863281c4.417969 0 8-3.582031 8-8v-200c0-4.417969-3.582031-8-8-8zm-456 16h448v24c0 13.253906-10.746094 24-24 24h-400c-13.253906 0-24-10.746094-24-24zm368 160h-288v-16h288zm-231.199219 61.503906-45.488281-45.503906h108.085938zm89.863281-45.503906h90.9375l-69.441406 46.28125-42.617187-30.402344zm141.335938-48h-288v-32h288zm-44.945312-48h-198.109376l-8-16h214.109376zm-323.054688 104v-128.207031c6.882812 5.292969 15.316406 8.175781 24 8.207031h75.054688l8 16h-35.054688c-4.417969 0-8 3.582031-8 8v79.257812l-3.136719 16.742188zm57.640625 104 19.429687-103.617188 53.273438 53.273438c2.792969 2.800781 7.210938 3.140625 10.398438.800781l50.832031-36.96875 51.816406 37.007813c2.707031 1.929687 6.324219 1.988281 9.089844.144531l93.917969-62.640625h22.960937l21.039063 112zm329.496094-104-3.136719-16.742188v-79.257812c0-4.417969-3.582031-8-8-8h-35.054688l8-16h75.054688c8.683594-.03125 17.117188-2.914062 24-8.207031v128.207031zm0 0"/><path d="m32 104h16v16h-16zm0 0"/><path d="m32 136h16v16h-16zm0 0"/><path d="m208 240c-13.253906 0-24 10.746094-24 24s10.746094 24 24 24 24-10.746094 24-24-10.746094-24-24-24zm0 32c-4.417969 0-8-3.582031-8-8s3.582031-8 8-8 8 3.582031 8 8-3.582031 8-8 8zm0 0"/><path d="m360 240h-40c-4.417969 0-8 3.582031-8 8s3.582031 8 8 8h40c4.417969 0 8-3.582031 8-8s-3.582031-8-8-8zm0 0"/><path d="m344 264h-40c-4.417969 0-8 3.582031-8 8s3.582031 8 8 8h40c4.417969 0 8-3.582031 8-8s-3.582031-8-8-8zm0 0"/><path d="m120 256h-16c-4.417969 0-8 3.582031-8 8s3.582031 8 8 8h16c4.417969 0 8-3.582031 8-8s-3.582031-8-8-8zm0 0"/><path d="m432 168h16v16h-16zm0 0"/><path d="m432 136h16v16h-16zm0 0"/></svg>