<svg height="480pt" viewBox="-56 0 480 480.00004" width="480pt" xmlns="http://www.w3.org/2000/svg"><path d="m328 24h-11.71875l-13.601562-20.441406c-1.488282-2.230469-3.996094-3.5664065-6.679688-3.558594h-48c-2.675781 0-5.171875 1.335938-6.65625 3.558594l-13.625 20.441406h-59.71875c-22.082031.027344-39.972656 17.917969-40 40v80c.027344 22.082031 17.917969 39.972656 40 40h40v16h-96v-168c0-4.417969-3.582031-8-8-8h-32c-4.417969 0-8 3.582031-8 8v40h-56c-4.417969 0-8 3.582031-8 8v96c0 4.417969 3.582031 8 8 8h56v56c0 4.417969 3.582031 8 8 8h136v16c0 4.417969 3.582031 8 8 8h16v32h-96c-8.835938 0-16 7.164062-16 16v16c0 8.835938 7.164062 16 16 16v16h-16v-8c0-4.417969-3.582031-8-8-8h-48c-4.417969 0-8 3.582031-8 8v64c0 4.417969 3.582031 8 8 8h48c4.417969 0 8-3.582031 8-8v-8h16v16c-4.417969 0-8 3.582031-8 8v32c0 4.417969 3.582031 8 8 8h112c4.417969 0 8-3.582031 8-8v-32c0-4.417969-3.582031-8-8-8v-80h40c4.417969 0 8-3.582031 8-8v-72h16c4.417969 0 8-3.582031 8-8v-16h8c13.253906 0 24-10.746094 24-24s-10.746094-24-24-24h-8v-16h8c22.082031-.027344 39.972656-17.917969 40-40v-80c-.027344-22.082031-17.917969-39.972656-40-40zm-184 64h32v48h-32zm-64-48h16v160h-16zm-32 128v-32h-16v32h-16v-80h16v32h16v-32h16v80zm32 64v-16h128v16zm56 88h112v16h-112zm-32 96h-32v-48h32zm16-16v-16h16v16zm120 64h-96v-16h96zm-56-49.472656c5.152344 1.964844 10.847656 1.964844 16 0v17.472656h-16zm0-22.527344c0-4.417969 3.582031-8 8-8s8 3.582031 8 8-3.582031 8-8 8-8-3.582031-8-8zm32 40v-40c0-13.253906-10.746094-24-24-24s-24 10.746094-24 24v40h-16v-80h80v80zm64-96h-16v-16c0-8.835938-7.164062-16-16-16v-32h32zm48-120c4.417969 0 8 3.582031 8 8s-3.582031 8-8 8h-8v-16zm-24-8v48h-80v-72h80zm48-64c0 13.253906-10.746094 24-24 24h-160c-10.132812-.042969-19.148438-6.445312-22.527344-16h38.527344c4.417969 0 8-3.582031 8-8v-64c0-4.417969-3.582031-8-8-8h-40v-8c0-13.253906 10.746094-24 24-24h64c2.675781 0 5.171875-1.335938 6.65625-3.558594l13.625-20.441406h39.4375l13.601562 20.441406c1.488282 2.230469 3.996094 3.566406 6.679688 3.558594h16c13.253906 0 24 10.746094 24 24zm0 0"/><path d="m336 104c0-35.347656-28.652344-64-64-64s-64 28.652344-64 64 28.652344 64 64 64c35.328125-.039062 63.960938-28.671875 64-64zm-64 48c-26.507812 0-48-21.492188-48-48s21.492188-48 48-48 48 21.492188 48 48c-.027344 26.5-21.5 47.972656-48 48zm0 0"/><path d="m272 72c-17.671875 0-32 14.328125-32 32s14.328125 32 32 32 32-14.328125 32-32-14.328125-32-32-32zm0 48c-8.835938 0-16-7.164062-16-16s7.164062-16 16-16 16 7.164062 16 16-7.164062 16-16 16zm0 0"/><path d="m240 224h16v16h-16zm0 0"/><path d="m272 224h16v16h-16zm0 0"/></svg>