<svg height="480pt" viewBox="-112 0 480 480" width="480pt" xmlns="http://www.w3.org/2000/svg"><path d="m0 352c0 2.808594 1.472656 5.410156 3.878906 6.855469l20.121094 12.074219v101.070312c0 4.417969 3.582031 8 8 8h32c4.417969 0 8-3.582031 8-8v-101.070312l20.121094-12.074219c2.40625-1.445313 3.878906-4.046875 3.878906-6.855469v-56c0-4.417969-3.582031-8-8-8v-208h80v208c-4.417969 0-8 3.582031-8 8v56c0 2.808594 1.472656 5.410156 3.878906 6.855469l20.121094 12.074219v101.070312c0 4.417969 3.582031 8 8 8h32c4.417969 0 8-3.582031 8-8v-101.070312l20.121094-12.074219c2.40625-1.445313 3.878906-4.046875 3.878906-6.855469v-56c0-4.417969-3.582031-8-8-8v-216c0-.097656-.046875-.175781-.054688-.273438-.023437-.929687-.207031-1.851562-.546874-2.71875-.070313-.167968-.183594-.304687-.261719-.472656-.203125-.464844-.449219-.914062-.738281-1.335937l-48-64c-1.507813-2.011719-3.878907-3.199219-6.398438-3.199219h-128c-2.519531 0-4.890625 1.1875-6.398438 3.199219l-48 64c-.289062.421875-.535156.871093-.738281 1.335937-.078125.167969-.191406.304688-.253906.472656-.347656.867188-.535156 1.789063-.554687 2.71875 0 .097657-.054688.175782-.054688.273438v216c-4.417969 0-8 3.582031-8 8zm56 80h-16v-16h16zm-16 32v-16h16v16zm16-64h-16v-19.472656l3.878906 2.328125c2.535156 1.523437 5.707032 1.523437 8.242188 0l3.878906-2.328125zm24-52.527344-32 19.199219-32-19.199219v-11.472656h16v-16h-16v-16h64zm-40-139.472656h-16v-24h16zm8-40h-24v-16h48v16zm24-32h-12.6875l12.6875-12.6875zm-24-11.3125-12.6875-12.6875h25.375zm-11.3125 11.3125h-12.6875v-12.6875zm19.3125 48h16v24h-16zm16-88h-48v-16h48zm128 112h-16v-24h16zm32-40h-48v-16h48zm-12.6875-32 12.6875-12.6875v12.6875zm-11.3125-11.3125-12.6875-12.6875h25.375zm-11.3125 11.3125h-12.6875v-12.6875zm19.3125 48h16v24h-16zm16-88h-48v-16h48zm-16 336h-16v-16h16zm-16 32v-16h16v16zm16-64h-16v-19.472656l3.878906 2.328125c2.535156 1.523437 5.707032 1.523437 8.242188 0l3.878906-2.328125zm24-52.527344-32 19.199219-32-19.199219v-11.472656h16v-16h-16v-16h64zm-24-59.472656v-32h-16v32h-16v-64h48v64zm-172-240h28v-16h-16l12-16h120l12 16h-16v16h28l12 16h-192zm-20 176h48v64h-16v-32h-16v32h-16zm0 0"/><path d="m48 320h16v16h-16zm0 0"/><path d="m208 320h16v16h-16zm0 0"/><path d="m88 32h16v16h-16zm0 0"/><path d="m120 32h16v16h-16zm0 0"/><path d="m152 32h16v16h-16zm0 0"/></svg>