<svg height="439pt" viewBox="0 -55 439.89621 439" width="439pt" xmlns="http://www.w3.org/2000/svg"><path d="m271.894531 72.449219c-34.605469.179687-65.941406 20.484375-80.246093 52-33.015626-21.953125-77.578126-13.003907-99.550782 20h-4.203125c-24.710937.03125-45.375 18.792969-47.78125 43.390625-27.574219 9.6875-44.15625 37.832031-39.269531 66.644531 4.890625 28.8125 29.828125 49.914063 59.050781 49.964844h168c13-.003907 25.644531-4.257813 36-12.113281v28.113281c0 4.417969 3.582031 8 8 8 4.421875 0 8-3.582031 8-8v-46.191407c4.792969-8.339843 7.492188-17.714843 7.875-27.320312 44.589844-8.375 75.507813-49.277344 71.398438-94.460938-4.109375-45.1875-41.902344-79.839843-87.273438-80.027343zm-44 216h-168c-22.265625-.074219-40.964843-16.769531-43.554687-38.882813-2.589844-22.117187 11.75-42.679687 33.394531-47.894531 3.609375-.851563 6.15625-4.070313 6.160156-7.777344v-1.445312c0-17.675781 14.328125-32 32-32h8.632813c2.855468-.003907 5.492187-1.527344 6.921875-4 12.695312-21.898438 38.5-32.558594 62.949219-26.007813 24.445312 6.554688 41.460937 28.695313 41.496093 54.007813v8c0 4.417969 3.582031 8 8 8h12c24.300781 0 44 19.699219 44 44s-19.699219 44-44 44zm58.402344-57.457031c-6.285156-27.203126-30.484375-46.488282-58.402344-46.542969h-4c-.003906-18.242188-6.96875-35.796875-19.46875-49.082031 12.0625-32.472657 45.539063-51.75 79.679688-45.886719 34.140625 5.867187 59.265625 35.210937 59.804687 69.847656.535156 34.636719-23.671875 64.746094-57.613281 71.664063zm0 0"/><path d="m271.894531 104.449219v16c22.082031.023437 39.976563 17.917969 40 40h16c-.035156-30.914063-25.085937-55.964844-56-56zm0 0"/><path d="m229.039062 64.96875c2.671876-.003906 5.160157-1.335938 6.644532-3.558594 1.484375-2.21875 1.761718-5.03125.742187-7.5l-6.128906-14.78125c-1.691406-4.082031-6.375-6.019531-10.457031-4.328125-4.082032 1.691407-6.019532 6.371094-4.328125 10.457031l6.128906 14.773438c1.238281 2.992188 4.160156 4.941406 7.398437 4.9375zm0 0"/><path d="m322.144531 260.863281c-1.035156-2.722656-3.472656-4.667969-6.355469-5.074219-2.886718-.410156-5.765624.785157-7.515624 3.113282s-2.097657 5.421875-.90625 8.082031l6.121093 14.785156c1.691407 4.082031 6.375 6.019531 10.457031 4.328125 4.082032-1.695312 6.019532-6.375 4.328126-10.457031zm0 0"/><path d="m393.214844 202.046875-14.78125-6.117187c-2.65625-1.167969-5.730469-.808594-8.046875.9375-2.3125 1.746093-3.5 4.609374-3.101563 7.480468.398438 2.871094 2.316406 5.304688 5.019532 6.355469l14.785156 6.128906c4.082031 1.691407 8.761718-.246093 10.453125-4.328125 1.695312-4.082031-.246094-8.761718-4.328125-10.457031zm0 0"/><path d="m367.976562 120.648438c1.691407 4.082031 6.375 6.019531 10.457032 4.328124l14.78125-6.121093c4.082031-1.691407 6.023437-6.371094 4.328125-10.457031-1.691407-4.082032-6.371094-6.019532-10.453125-4.328126l-14.785156 6.128907c-4.078126 1.691406-6.015626 6.367187-4.328126 10.449219zm0 0"/><path d="m314.753906 64.96875c3.234375 0 6.152344-1.949219 7.390625-4.9375l6.128907-14.773438c1.691406-4.085937-.246094-8.765624-4.328126-10.457031-4.082031-1.691406-8.765624.246094-10.457031 4.328125l-6.121093 14.78125c-1.019532 2.46875-.742188 5.28125.742187 7.5 1.480469 2.222656 3.972656 3.554688 6.644531 3.558594zm0 0"/><path d="m279.894531 48.449219v-40c0-4.417969-3.578125-8-8-8-4.417969 0-8 3.582031-8 8v40c0 4.417969 3.582031 8 8 8 4.421875 0 8-3.582031 8-8zm0 0"/><path d="m192.695312 89.25c3.234376-.003906 6.152344-1.953125 7.390626-4.941406 1.238281-2.988282.554687-6.429688-1.734376-8.714844l-22.632812-22.632812c-2.007812-2.082032-4.980469-2.914063-7.777344-2.183594-2.796875.734375-4.984375 2.917968-5.714844 5.714844-.730468 2.796874.101563 5.769531 2.183594 7.78125l22.628906 22.628906c1.5 1.503906 3.535157 2.34375 5.65625 2.347656zm0 0"/><path d="m356.746094 233.984375c-3.140625-3.03125-8.128906-2.988281-11.214844.097656-3.085938 3.085938-3.128906 8.074219-.097656 11.214844l22.628906 22.632813c3.140625 3.03125 8.128906 2.988281 11.214844-.097657 3.085937-3.085937 3.128906-8.078125.097656-11.214843zm0 0"/><path d="m431.894531 152.449219h-48c-4.417969 0-8 3.582031-8 8s3.582031 8 8 8h48c4.421875 0 8-3.582031 8-8s-3.578125-8-8-8zm0 0"/><path d="m368.0625 52.96875-22.628906 22.632812c-2.082032 2.007813-2.914063 4.980469-2.183594 7.777344.734375 2.796875 2.917969 4.984375 5.714844 5.714844s5.769531-.101562 7.78125-2.183594l22.628906-22.628906c2.082031-2.007812 2.914062-4.984375 2.183594-7.78125-.734375-2.796875-2.917969-4.980469-5.714844-5.714844-2.796875-.730468-5.769531.101563-7.78125 2.183594zm0 0"/><path d="m65.894531 255.6875c-8.453125-2.179688-15.058593-8.777344-17.246093-17.230469-.664063-2.824219-2.804688-5.066406-5.589844-5.863281-2.789063-.796875-5.789063-.019531-7.84375 2.027344-2.054688 2.046875-2.839844 5.042968-2.054688 7.835937 3.636719 14.09375 14.640625 25.097657 28.734375 28.734375.65625.164063 1.328125.25 2 .25 4.039063.011719 7.453125-2.988281 7.960938-6.992187.507812-4.007813-2.046875-7.761719-5.960938-8.761719zm0 0"/><path d="m103.894531 256.449219h-8c-4.417969 0-8 3.582031-8 8s3.582031 8 8 8h8c4.421875 0 8-3.582031 8-8s-3.578125-8-8-8zm0 0"/></svg>