<svg height="475pt" viewBox="0 -101 475.51368 475" width="475pt" xmlns="http://www.w3.org/2000/svg"><path d="m464 138.304688c15.351562-20.101563 15.351562-47.988282 0-68.085938l-.214844-.289062c-4.179687-8.890626-4.0625-19.203126.3125-28l9.261719-18.535157c2.472656-4.957031 2.203125-10.839843-.710937-15.550781-2.914063-4.710938-8.054688-7.582031-13.59375-7.585938h-12.429688c-15.429688.042969-30.308594 5.734376-41.824219 16h-332.800781c-4.417969 0-8 3.582032-8 8h-24c-4.417969 0-8 3.582032-8 8v16h-8c-13.253906 0-24 10.746094-24 24v64c0 13.253907 10.746094 24 24 24h8v16c0 4.417969 3.582031 8 8 8h24c0 4.417969 3.582031 8 8 8h25.222656l6.777344 40.65625v23.34375c0 8.835938 7.164062 16 16 16h88c13.253906 0 24-10.746093 24-24 0-13.253906-10.746094-24-24-24h-49.222656l-5.335938-32h251.359375c11.511719 10.257813 26.378907 15.949219 41.800781 16h12.429688c5.558594.007813 10.722656-2.871093 13.640625-7.601562s3.171875-10.636719.671875-15.597656l-9.265625-18.53125c-4.375-8.792969-4.488281-19.105469-.308594-28zm-88 37.953124h-16v-144h16zm-184-80h56v16h-56zm0-16v-16h56v16zm-16 96h-16v-144h16zm16-48h56v16h-56zm152-16h-40v-16h40zm0-32h-40v-16h40zm-56 96h-24v-144h24zm16-48h40v16h-40zm40-96v16h-40v-16zm-96 0v16h-56v-16zm-104 0v144h-32v-16h16v-16h-16v-32h16v-16h-16v-32h16v-16h-16v-16zm-120 112c-4.417969 0-8-3.582031-8-8v-64c0-4.417968 3.582031-8 8-8h8v80zm24 24v-128h16v128zm32-136h16v144h-16zm136 216c0 4.417969-3.582031 8-8 8h-88v-16h88c4.417969 0 8 3.582032 8 8zm-97.222656-24-5.328125-32h23.773437l5.328125 32zm73.222656-48v-16h56v16zm112 0v-16h40v16zm145.792969-2.527343 9.304687 18.527343h-12.472656c-12.359375-.035156-24.207031-4.941406-32.96875-13.65625-1.5-1.5-3.535156-2.34375-5.65625-2.34375h-16v-144h16c2.121094 0 4.15625-.84375 5.65625-2.34375 8.761719-8.714843 20.609375-13.621093 32.96875-13.65625h12.429688l-9.261719 18.527344c-6.722657 13.527344-6.722657 29.417969 0 42.945313.222656.449219.492187.878906.800781 1.277343l.710938.9375c10.96875 14.355469 10.96875 34.277344 0 48.632813l-.710938.925781c-.308594.398438-.578125.828125-.800781 1.28125-6.722657 13.527344-6.722657 29.417969 0 42.945313zm0 0"/><path d="m416 48.257812c-4.417969 0-8 3.582032-8 8v48c0 4.417969 3.582031 8 8 8s8-3.582031 8-8v-48c0-4.417968-3.582031-8-8-8zm0 0"/><path d="m416 128.257812c-4.417969 0-8 3.582032-8 8v8c0 4.417969 3.582031 8 8 8s8-3.582031 8-8v-8c0-4.417968-3.582031-8-8-8zm0 0"/></svg>