<svg height="480pt" viewBox="-64 0 480 480" width="480pt" xmlns="http://www.w3.org/2000/svg"><path d="m0 387.894531v36.105469c.0351562 30.914062 25.085938 55.964844 56 56h32c30.914062-.035156 55.964844-25.085938 56-56v-36.105469c.003906-3.4375-.550781-6.855469-1.648438-10.117187-8.976562-27.125-8.976562-56.421875 0-83.546875 1.09375-3.261719 1.652344-6.683594 1.648438-10.125v-180.105469c0-17.671875-14.328125-32-32-32h-16v-8c-.042969-10.132812-6.445312-19.148438-16-22.527344v-1.472656c0-13.253906 10.746094-24 24-24h64c13.253906 0 24 10.746094 24 24v248l-12.800781 9.601562c-3.535157 2.648438-4.25 7.664063-1.597657 11.199219 2.648438 3.535157 7.664063 4.25 11.199219 1.597657l3.199219-2.398438v4l-12.800781 9.601562c-3.535157 2.648438-4.25 7.664063-1.597657 11.199219 2.648438 3.535157 7.664063 4.25 11.199219 1.597657l3.199219-2.398438v4l-12.800781 9.601562c-3.535157 2.648438-4.25 7.664063-1.597657 11.199219 2.648438 3.535157 7.664063 4.25 11.199219 1.597657l3.199219-2.398438v4l-12.800781 9.601562c-3.535157 2.648438-4.25 7.664063-1.597657 11.199219 2.648438 3.535157 7.664063 4.25 11.199219 1.597657l3.199219-2.398438v52c.027344 22.082031 17.917969 39.972656 40 40h24c22.082031-.027344 39.972656-17.917969 40-40v-176c8.835938 0 16-7.164062 16-16v-18.222656c4.933594-2.835938 7.984375-8.085938 8-13.777344h24c4.417969 0 8-3.582031 8-8v-32c0-4.417969-3.582031-8-8-8h-64c-13.253906 0-24 10.746094-24 24v24c.015625 5.691406 3.066406 10.941406 8 13.777344v18.222656c0 8.835938 7.164062 16 16 16v176c0 13.253906-10.746094 24-24 24h-24c-13.253906 0-24-10.746094-24-24v-64l12.800781-9.601562c3.535157-2.648438 4.25-7.664063 1.597657-11.199219-2.648438-3.535157-7.664063-4.25-11.199219-1.597657l-3.199219 2.398438v-4l12.800781-9.601562c3.535157-2.648438 4.25-7.664063 1.597657-11.199219-2.648438-3.535157-7.664063-4.25-11.199219-1.597657l-3.199219 2.398438v-4l12.800781-9.601562c3.535157-2.648438 4.25-7.664063 1.597657-11.199219-2.648438-3.535157-7.664063-4.25-11.199219-1.597657l-3.199219 2.398438v-4l12.800781-9.601562c3.535157-2.648438 4.25-7.664063 1.597657-11.199219-2.648438-3.535157-7.664063-4.25-11.199219-1.597657l-3.199219 2.398438v-236c-.027344-22.082031-17.917969-39.9726562-40-40h-64c-22.082031.0273438-39.972656 17.917969-40 40v1.472656c-9.554688 3.378906-15.957031 12.394532-16 22.527344v8h-16c-17.671875 0-32 14.328125-32 32v180.105469c-.00390625 3.4375.550781 6.855469 1.648438 10.117187 8.976562 27.125 8.976562 56.421875 0 83.546875-1.09375 3.261719-1.65234425 6.683594-1.648438 10.125zm336-195.894531h-16v-16h16zm-64-8c0-4.417969 3.582031-8 8-8h24v32h-32zm8 40h16v16h-16zm-152.800781 158.839844c.542969 1.628906.8125 3.339844.800781 5.054687v36.105469c-.027344 22.082031-17.917969 39.972656-40 40h-32c-22.082031-.027344-39.972656-17.917969-40-40v-36.105469c-.011719-1.71875.257812-3.429687.800781-5.0625 10.0625-30.414062 10.0625-63.257812 0-93.671875-.542969-1.628906-.8125-3.339844-.800781-5.054687v-45.707031l32.34375 20.21875c-11.636719 12.777343-11.023438 32.492187 1.386719 44.519531 12.414062 12.03125 32.132812 12.03125 44.546875 0 12.410156-12.027344 13.023437-31.742188 1.386718-44.519531l32.335938-20.175782v45.664063c.011719 1.71875-.257812 3.429687-.800781 5.0625-10.0625 30.414062-10.0625 63.257812 0 93.671875zm-39.199219-102.839844c.039062 7.945312-5.757812 14.714844-13.613281 15.898438-7.855469 1.1875-15.390625-3.570313-17.695313-11.171876-2.308594-7.601562 1.3125-15.746093 8.5-19.125 4.492188.859376 9.109375.859376 13.601563 0 5.589843 2.621094 9.171875 8.222657 9.207031 14.398438zm-16-32c-13.253906 0-24-10.746094-24-24s10.746094-24 24-24 24 10.746094 24 24-10.746094 24-24 24zm-8-184c0-4.417969 3.582031-8 8-8s8 3.582031 8 8v8h-16zm-48 40c0-8.835938 7.164062-16 16-16h80c8.835938 0 16 7.164062 16 16v115.566406l-16.601562 10.402344c.351562-1.972656.554687-3.96875.601562-5.96875 0-22.089844-17.910156-40-40-40s-40 17.910156-40 40c.050781 1.992188.25 3.980469.601562 5.945312l-16.601562-10.378906zm0 0"/><path d="m40 168h64c4.417969 0 8-3.582031 8-8v-48c0-4.417969-3.582031-8-8-8h-64c-4.417969 0-8 3.582031-8 8v48c0 4.417969 3.582031 8 8 8zm8-48h48v32h-48zm0 0"/><path d="m40 328h16v16h-16zm0 0"/><path d="m40 360h16v16h-16zm0 0"/><path d="m40 392h16v16h-16zm0 0"/><path d="m40 424h16v16h-16zm0 0"/><path d="m88 328h16v16h-16zm0 0"/><path d="m88 360h16v16h-16zm0 0"/><path d="m88 392h16v16h-16zm0 0"/><path d="m88 424h16v16h-16zm0 0"/></svg>