<svg height="480pt" viewBox="-49 0 480 480.00012" width="480pt" xmlns="http://www.w3.org/2000/svg"><path d="m189.777344 64c-13.257813 0-24 10.746094-24 24s10.742187 24 24 24c13.253906 0 24-10.746094 24-24s-10.746094-24-24-24zm0 32c-4.417969 0-8-3.582031-8-8s3.582031-8 8-8c4.417968 0 8 3.582031 8 8s-3.582032 8-8 8zm0 0"/><path d="m380.519531 448-18.871093-29.488281-139.871094-218.625c-.0625-4.375-3.625-7.886719-8-7.886719v-16h24c3.335937-.011719 6.308594-2.105469 7.445312-5.238281l10.898438 10.894531c1.5 1.5 3.535156 2.34375 5.65625 2.34375h24v8c0 4.417969 3.582031 8 8 8h32c13.253906 0 24-10.746094 24-24s-10.746094-24-24-24h-32c-4.417969 0-8 3.582031-8 8v8h-20.6875l-19.3125-19.3125v-4.6875h24c4.417968 0 8-3.582031 8-8v-96c0-4.417969-3.582032-8-8-8h-27.058594l-13.742188-27.574219c-1.363281-2.726562-4.152343-4.441406-7.199218-4.425781h-64c-3.035156 0-5.804688 1.710938-7.160156 4.425781l-13.785157 27.574219h-27.054687c-4.417969 0-8 3.582031-8 8v96c0 4.417969 3.582031 8 8 8h24v24c0 4.417969 3.582031 8 8 8h24v16c-4.417969 0-8 3.582031-8 8v3.375l-156.53125 244.625c-1.714844 2.699219-1.65625 6.160156.144531 8.800781.605469.882813 1.378906 1.632813 2.28125 2.207031l26.953125 17.25c1.285156.828126 2.78125 1.265626 4.3125 1.261719.574219.003907 1.148438-.058593 1.710938-.183593l.085937-.039063c.886719-.214844 1.730469-.585937 2.488281-1.089844.179688-.113281.355469-.234375.519532-.367187.734374-.535156 1.367187-1.191406 1.875-1.945313l.054687-.0625 116.105469-181.398437v19.566406c0 4.417969 3.582031 8 8 8v152c0 4.417969 3.582031 8 8 8h32c4.417968 0 8-3.582031 8-8v-152c4.417968 0 8-3.582031 8-8v-23.015625l118.300781 184.871094c1.144531 1.789062 2.953125 3.050781 5.027344 3.503906 2.074219.457031 4.242187.066406 6.03125-1.078125l26.953125-17.25c3.707031-2.390625 4.78125-7.332031 2.398437-11.046875zm-78.742187-280h24c4.417968 0 8 3.582031 8 8s-3.582032 8-8 8h-24zm-128 40.070312.046875-.070312h31.953125v96h-32zm88-80.070312h-32.890625c10.796875-10.507812 16.890625-24.933594 16.890625-40s-6.09375-29.492188-16.890625-40h32.890625zm-112-40c0-22.089844 17.90625-40 40-40 22.089844 0 40 17.910156 40 40s-17.910156 40-40 40c-22.082032-.027344-39.976563-17.917969-40-40zm12.941406-72h54.113281l8 16h-70.113281zm-44.941406 32h32.886718c-10.796874 10.507812-16.886718 24.933594-16.886718 40s6.089844 29.492188 16.886718 40h-32.886718zm32 96h80v16h-80zm32 32h16v16h-16zm-149.265625 282.496094-13.472657-8.625 10.242188-16 13.480469 8.625zm18.863281-29.496094-13.480469-8.625 119.882813-187.304688v29.664063zm146.402344 35h-16v-16h16zm0-32h-16v-112h16zm24-202.398438 122.078125 190.78125-13.472657 8.625-108.605468-169.71875zm127.480468 228.878907-10.25-16 13.472657-8.625 10.246093 16zm0 0"/></svg>