<svg height="480pt" viewBox="-13 0 480 480.0019" width="480pt" xmlns="http://www.w3.org/2000/svg"><path d="m255.285156 104c13.253906 0 24-10.742188 24-24 0-13.253906-10.746094-24-24-24-13.257812 0-24 10.746094-24 24 0 13.257812 10.742188 24 24 24zm0-32c4.417969 0 8 3.582031 8 8 0 4.421875-3.582031 8-8 8-4.417968 0-8-3.578125-8-8 0-4.417969 3.582032-8 8-8zm0 0"/><path d="m451.644531 161.289062c-2.273437-1.472656-5.132812-1.699218-7.609375-.597656l-60.75 27v-11.691406c0-4.417969-3.582031-8-8-8h-32c-4.417968 0-8 3.582031-8 8v8h-16v-16c0-4.417969-3.582031-8-8-8h-96v-10.820312c29.316406 16.9375 66.125 13.574218 91.882813-8.398438 25.761719-21.972656 34.890625-57.789062 22.785156-89.410156s-42.8125-52.191406-76.664063-51.3476565c-33.847656.8476565-63.492187 22.9218745-74.003906 55.1054685-7.632812-23.402344-25.628906-41.980468-48.777344-50.351562-23.152343-8.371094-48.867187-5.605469-69.703124 7.503906h-.089844l-.128906.097656c-2.496094 1.566406-4.898438 3.273438-7.199219 5.117188h-.046875c-2.226563 1.785156-4.355469 3.691406-6.375 5.707031-.082032.078125-.175782.144531-.25.222656-.070313.082031-.128906.152344-.199219.214844-1.996094 2.035156-3.882813 4.171875-5.65625 6.402344l-.152344.207031c-19.144531 24.015625-22.835937 56.878906-9.492187 84.542969 13.339844 27.667969 41.355468 45.238281 72.070312 45.207031 11.011719-.019531 21.90625-2.304688 32-6.71875v6.71875h-40c-4.417968 0-8 3.582031-8 8v24h-39.015625l-31.042969-7.757812c-2.390624-.597657-4.921874-.0625-6.863281 1.453124-1.945312 1.515626-3.078125 3.84375-3.078125 6.304688v48c0 2.464844 1.136719 4.789062 3.078125 6.304688.867188.652343 1.863281 1.117187 2.921875 1.359374.292969.070313.589844.121094.886719.152344.367187.089844.738281.152344 1.113281.183594.652344 0 1.308594-.078125 1.941406-.238281l31.042969-7.761719h39.015625v88c0 4.421875 3.582032 8 8 8h56c.007813 2.636719.277344 5.265625.796875 7.851562l-92.421875 55.863282-4.375-6.914063c-1.132812-1.792969-2.933594-3.066406-5-3.535156-2.070312-.476563-4.246094-.097656-6.035156 1.046875l-33.765625 21.402344c-10.679687 7.277344-13.675781 21.707031-6.78125 32.636718 6.898437 10.933594 21.214844 14.4375 32.378906 7.929688l33.808594-21.382812c3.730469-2.363282 4.839844-7.300782 2.480469-11.03125l-4.191406-6.625 90.207031-54.535157c2.523437 3.574219 5.613281 6.714844 9.144531 9.292969h-.246094v40h-48c-13.257812 0-24 10.746094-24 24 0 13.257812 10.742188 24 24 24h1.054688l-7.710938 11.5625 13.3125 8.878906 13.621094-20.441406h51.722656v24h16v-24h59.71875l13.601563 20.441406 13.308593-8.878906-8.34375-12.511719c11.605469-3.125 19.09375-14.371093 17.5-26.285156-1.589843-11.910156-11.769531-20.792969-23.785156-20.765625h-48v-40h-.25c10.183594-7.484375 16.214844-19.359375 16.25-32h64c4.417969 0 8-3.578125 8-8v-64h16v8c0 4.421875 3.582032 8 8 8h32c4.417969 0 8-3.578125 8-8v-11.6875l60.75 27c1.023438.457031 2.128906.691406 3.25.6875 4.417969 0 8-3.578125 8-8v-112c0-2.707031-1.371094-5.234375-3.640625-6.710938zm-424.082031 277.472657c-3.734375 2.363281-8.675781 1.246093-11.039062-2.488281-2.359376-3.734376-1.246094-8.679688 2.488281-11.039063l27.046875-17.097656 8.554687 13.519531zm75.722656-195.664063 37.46875 12.488282c.816406.273437 1.671875.414062 2.53125.414062h128v32h-168zm41.292969-3.097656-41.292969-13.757812v-18.242188h200v32zm158.707031-48h-16v-16h16zm-48-176c35.34375 0 64 28.65625 64 64 0 35.347656-28.65625 64-64 64-35.347656 0-64-28.652344-64-64 .039063-35.328125 28.667969-63.957031 64-64zm-146.34375 69.65625c-3.164062 3.035156-8.152344 3.035156-11.3125 0-3.125-3.121094-3.125-8.1875-.003906-11.3125 3.125-3.125 8.191406-3.125 11.316406 0s3.125 8.191406 0 11.3125zm-22.625-22.621094c-1.914062 1.949219-3.472656 4.214844-4.617187 6.695313l-28.945313-28.929688.128906-.199219c1.554688-2.011718 3.230469-3.925781 5.015626-5.734374l.105468-.121094.121094-.113282c1.796875-1.769531 3.695312-3.433593 5.695312-4.976562l.230469-.175781 29.007813 29.007812c-2.503906 1.09375-4.789063 2.632813-6.742188 4.546875zm-28.289062 62.222656c-18.429688-18.449218-23.839844-46.230468-13.679688-70.246093l41.945313 41.933593c9.390625 9.246094 24.480469 9.183594 33.800781-.132812s9.382812-24.40625.140625-33.800781l-41.902344-41.90625c29.636719-12.5625 63.992188-1.160157 80.234375 26.632812 16.242188 27.789063 9.3125 63.320313-16.175781 82.976563-25.492187 19.652344-61.617187 17.316406-84.363281-5.457032zm93.257812 18.632813c13.210938-9.730469 23.011719-23.386719 28-39.015625 4 12.164062 10.859375 23.191406 20 32.160156v22.964844h-48zm-48 32.109375h168v16h-168zm-64 30.25v19.503906l-16 4v-27.503906zm16 17.75v-16h32v16zm232 208c0 4.421875-3.582031 8-8 8h-160c-4.417968 0-8-3.578125-8-8 0-4.417969 3.582032-8 8-8h160c4.417969 0 8 3.582031 8 8zm-72-24h-32v-32.796875c2.632813.535156 5.3125.800781 8 .796875h16c2.683594.003906 5.367188-.261719 8-.796875zm-8-48h-16c-13.257812 0-24-10.742188-24-24h64c0 13.257812-10.746094 24-24 24zm96-40h-200v-16h176c4.417969 0 8-3.578125 8-8v-40h16zm16-72v-48h16v48zm48 16h-16v-80h16zm72 3.691406-56-24.882812v-37.597656l56-24.882813zm0 0"/></svg>